<svg width="20" height="20" viewBox="0 0 20 20" fill="none" xmlns="http://www.w3.org/2000/svg">
<path d="M3.33331 9.99999C3.33331 6.85729 3.33331 5.28595 4.30962 4.30964C5.28594 3.33333 6.85728 3.33333 9.99998 3.33333C13.1426 3.33333 14.7141 3.33333 15.6903 4.30964C16.6666 5.28595 16.6666 6.85729 16.6666 9.99999C16.6666 13.1427 16.6666 14.7141 15.6903 15.6903C14.7141 16.6667 13.1426 16.6667 9.99998 16.6667C6.85728 16.6667 5.28594 16.6667 4.30962 15.6903C3.33331 14.7141 3.33331 13.1427 3.33331 9.99999Z" stroke="#808081" stroke-width="1.25" stroke-linejoin="round"/>
<path d="M6.25 12.5L7.78491 7.89528C7.86359 7.65923 8.0845 7.5 8.33333 7.5C8.58217 7.5 8.80308 7.65923 8.88175 7.89528L10.4167 12.5M7.08333 10.8333H9.58333" stroke="#808081" stroke-width="1.25" stroke-linecap="round" stroke-linejoin="round"/>
<path d="M12.9167 7.5V12.5" stroke="#808081" stroke-width="1.25" stroke-linecap="round" stroke-linejoin="round"/>
<path d="M6.66669 1.66667V3.33334M13.3334 1.66667V3.33334M10 1.66667V3.33334M6.66669 16.6667V18.3333M10 16.6667V18.3333M13.3334 16.6667V18.3333M18.3334 13.3333H16.6667M3.33335 6.66667H1.66669M3.33335 13.3333H1.66669M3.33335 10H1.66669M18.3334 6.66667H16.6667M18.3334 10H16.6667" stroke="#808081" stroke-width="1.25" stroke-linecap="round" stroke-linejoin="round"/>
</svg>
