<svg width="20" height="20" viewBox="0 0 20 20" fill="none" xmlns="http://www.w3.org/2000/svg">
<path d="M5.83331 15V10M9.99998 15V7.5M14.1666 15V11.6667" stroke="#808081" stroke-width="1.25" stroke-linecap="round" stroke-linejoin="round"/>
<path d="M17.9167 4.58334C17.9167 5.96404 16.7974 7.08334 15.4167 7.08334C14.0359 7.08334 12.9167 5.96404 12.9167 4.58334C12.9167 3.20263 14.0359 2.08334 15.4167 2.08334C16.7974 2.08334 17.9167 3.20263 17.9167 4.58334Z" stroke="#808081" stroke-width="1.25" stroke-linejoin="round"/>
<path d="M10.7895 2.08334H3.74998C2.8295 2.08334 2.08331 2.82953 2.08331 3.75V16.25C2.08331 17.1705 2.8295 17.9167 3.74998 17.9167H16.25C17.1705 17.9167 17.9166 17.1705 17.9166 16.25V9.2105" stroke="#808081" stroke-width="1.25" stroke-linecap="round" stroke-linejoin="round"/>
</svg>
