<svg preserveAspectRatio="none" width="100%" height="100%" overflow="visible" style="display: block;" viewBox="0 0 18 16" fill="none" xmlns="http://www.w3.org/2000/svg">
<g id="Union">
<path d="M2.50491 0.365152C4.30269 0.124301 6.13702 0 8 0C9.86298 0 11.6973 0.124301 13.4951 0.365152C14.7418 0.53218 15.6741 1.4733 15.9298 2.6333C15.7425 2.59823 15.5501 2.57486 15.3531 2.5641C14.5739 2.52154 13.7894 2.5 13 2.5C12.2106 2.5 11.4261 2.52154 10.6469 2.5641C8.22913 2.69615 6.5 4.72739 6.5 6.99794V9.23769C6.5 10.6511 7.17008 11.9726 8.26042 12.8002L5.28033 15.7803C5.06583 15.9948 4.74324 16.059 4.46299 15.9429C4.18273 15.8268 4 15.5533 4 15.25V11.8073C3.49897 11.7588 3.00056 11.7013 2.50493 11.6349C1.0334 11.4377 0 10.1622 0 8.72114V3.27886C0 1.83785 1.03337 0.562296 2.50491 0.365152Z" fill="var(--fill-0, #10141A)"/>
<path d="M13 4C12.2379 4 11.4807 4.0208 10.7287 4.06187C9.15722 4.1477 8 5.47212 8 6.99794V9.23769C8 10.7565 9.14669 12.077 10.7102 12.1726C10.9238 12.1857 11.1379 12.1971 11.3524 12.2068C11.5526 12.216 11.7366 12.2973 11.8702 12.4309L14.2197 14.7803C14.4342 14.9948 14.7568 15.059 15.037 14.9429C15.3173 14.8268 15.5 14.5533 15.5 14.25V12.1795C16.9525 11.9847 18 10.7165 18 9.2648V6.99794C18 5.47212 16.8428 4.1477 15.2713 4.06187C14.5193 4.0208 13.7621 4 13 4Z" fill="var(--fill-0, #10141A)"/>
</g>
</svg>
