<svg preserveAspectRatio="none" width="100%" height="100%" overflow="visible" style="display: block;" viewBox="0 0 18 16" fill="none" xmlns="http://www.w3.org/2000/svg">
<path id="Subtract" d="M9 0C11.2359 0 13.4306 0.17875 15.5703 0.523438C17.0066 0.754833 18 2.0132 18 3.42578V8.57422C18 9.9868 17.0066 11.2452 15.5703 11.4766C13.8748 11.7497 12.1445 11.9181 10.3867 11.9766C10.183 11.9834 9.99518 12.0654 9.85938 12.2012L6.28027 15.7803C6.06579 15.9948 5.74313 16.0594 5.46289 15.9434C5.18263 15.8273 5 15.5533 5 15.25V11.8076C4.13517 11.7239 3.27806 11.6132 2.42969 11.4766C0.993365 11.2452 4.82846e-05 9.9868 0 8.57422V3.42578C4.81728e-05 2.0132 0.993362 0.754833 2.42969 0.523438C4.56936 0.17875 6.76407 0 9 0ZM6 5C5.44772 5 5 5.44772 5 6C5 6.55228 5.44772 7 6 7C6.55228 7 7 6.55228 7 6C7 5.44772 6.55228 5 6 5ZM9 5C8.44772 5 8 5.44772 8 6C8 6.55228 8.44772 7 9 7C9.55228 7 10 6.55228 10 6C10 5.44772 9.55228 5 9 5ZM12 5C11.4477 5 11 5.44772 11 6C11 6.55228 11.4477 7 12 7C12.5523 7 13 6.55228 13 6C13 5.44772 12.5523 5 12 5Z" fill="var(--fill-0, #10141A)"/>
</svg>
