<svg width="20" height="20" viewBox="0 0 20 20" fill="none" xmlns="http://www.w3.org/2000/svg">
<path d="M12.4836 5.8457C12.4836 5.8457 12.9003 6.26237 13.317 7.0957C13.317 7.0957 14.6405 5.01237 15.817 4.5957" stroke="#808081" stroke-width="1.25" stroke-linecap="round" stroke-linejoin="round"/>
<path d="M12.4836 5.8457C12.4836 5.8457 12.9003 6.26237 13.317 7.0957C13.317 7.0957 14.6405 5.01237 15.817 4.5957" stroke="black" stroke-opacity="0.2" stroke-width="1.25" stroke-linecap="round" stroke-linejoin="round"/>
<path d="M12.4836 5.8457C12.4836 5.8457 12.9003 6.26237 13.317 7.0957C13.317 7.0957 14.6405 5.01237 15.817 4.5957" stroke="black" stroke-opacity="0.2" stroke-width="1.25" stroke-linecap="round" stroke-linejoin="round"/>
<path d="M8.32912 1.68353C6.24706 1.59538 4.63851 1.83523 4.63851 1.83523C3.62281 1.90785 1.6763 2.47728 1.67631 5.80286C1.67633 9.10016 1.65478 13.1652 1.67631 14.7857C1.67631 15.7757 2.28933 18.0852 4.41113 18.2089C6.99016 18.3594 11.6357 18.3914 13.7671 18.2089C14.3377 18.1767 16.2373 17.7288 16.4777 15.6621C16.7268 13.521 16.6772 12.033 16.6772 11.6788" stroke="#808081" stroke-width="1.25" stroke-linecap="round" stroke-linejoin="round"/>
<path d="M8.32912 1.68353C6.24706 1.59538 4.63851 1.83523 4.63851 1.83523C3.62281 1.90785 1.6763 2.47728 1.67631 5.80286C1.67633 9.10016 1.65478 13.1652 1.67631 14.7857C1.67631 15.7757 2.28933 18.0852 4.41113 18.2089C6.99016 18.3594 11.6357 18.3914 13.7671 18.2089C14.3377 18.1767 16.2373 17.7288 16.4777 15.6621C16.7268 13.521 16.6772 12.033 16.6772 11.6788" stroke="black" stroke-opacity="0.2" stroke-width="1.25" stroke-linecap="round" stroke-linejoin="round"/>
<path d="M8.32912 1.68353C6.24706 1.59538 4.63851 1.83523 4.63851 1.83523C3.62281 1.90785 1.6763 2.47728 1.67631 5.80286C1.67633 9.10016 1.65478 13.1652 1.67631 14.7857C1.67631 15.7757 2.28933 18.0852 4.41113 18.2089C6.99016 18.3594 11.6357 18.3914 13.7671 18.2089C14.3377 18.1767 16.2373 17.7288 16.4777 15.6621C16.7268 13.521 16.6772 12.033 16.6772 11.6788" stroke="black" stroke-opacity="0.2" stroke-width="1.25" stroke-linecap="round" stroke-linejoin="round"/>
<path d="M18.3333 5.84635C18.3333 8.14754 16.466 10.0131 14.1626 10.0131C11.8592 10.0131 9.99194 8.14754 9.99194 5.84635C9.99194 3.54517 11.8592 1.67969 14.1626 1.67969C16.466 1.67969 18.3333 3.54517 18.3333 5.84635Z" stroke="#808081" stroke-width="1.25" stroke-linecap="round"/>
<path d="M18.3333 5.84635C18.3333 8.14754 16.466 10.0131 14.1626 10.0131C11.8592 10.0131 9.99194 8.14754 9.99194 5.84635C9.99194 3.54517 11.8592 1.67969 14.1626 1.67969C16.466 1.67969 18.3333 3.54517 18.3333 5.84635Z" stroke="black" stroke-opacity="0.2" stroke-width="1.25" stroke-linecap="round"/>
<path d="M18.3333 5.84635C18.3333 8.14754 16.466 10.0131 14.1626 10.0131C11.8592 10.0131 9.99194 8.14754 9.99194 5.84635C9.99194 3.54517 11.8592 1.67969 14.1626 1.67969C16.466 1.67969 18.3333 3.54517 18.3333 5.84635Z" stroke="black" stroke-opacity="0.2" stroke-width="1.25" stroke-linecap="round"/>
<path d="M5.81714 10.8457H9.15045" stroke="#808081" stroke-width="1.25" stroke-linecap="round"/>
<path d="M5.81714 10.8457H9.15045" stroke="black" stroke-opacity="0.2" stroke-width="1.25" stroke-linecap="round"/>
<path d="M5.81714 10.8457H9.15045" stroke="black" stroke-opacity="0.2" stroke-width="1.25" stroke-linecap="round"/>
<path d="M5.81714 14.1797H12.4838" stroke="#808081" stroke-width="1.25" stroke-linecap="round"/>
<path d="M5.81714 14.1797H12.4838" stroke="black" stroke-opacity="0.2" stroke-width="1.25" stroke-linecap="round"/>
<path d="M5.81714 14.1797H12.4838" stroke="black" stroke-opacity="0.2" stroke-width="1.25" stroke-linecap="round"/>
</svg>
