<svg width="20" height="20" viewBox="0 0 20 20" fill="none" xmlns="http://www.w3.org/2000/svg">
<path d="M16.6667 18.333V15.833C16.6667 13.476 16.6667 12.2975 15.9345 11.5653C15.2022 10.833 14.0237 10.833 11.6667 10.833L10 12.4997L8.33337 10.833C5.97635 10.833 4.79784 10.833 4.06561 11.5653C3.33337 12.2975 3.33337 13.476 3.33337 15.833V18.333" stroke="#808081" stroke-width="1.25" stroke-linecap="round" stroke-linejoin="round"/>
<path d="M16.6667 18.333V15.833C16.6667 13.476 16.6667 12.2975 15.9345 11.5653C15.2022 10.833 14.0237 10.833 11.6667 10.833L10 12.4997L8.33337 10.833C5.97635 10.833 4.79784 10.833 4.06561 11.5653C3.33337 12.2975 3.33337 13.476 3.33337 15.833V18.333" stroke="black" stroke-opacity="0.2" stroke-width="1.25" stroke-linecap="round" stroke-linejoin="round"/>
<path d="M16.6667 18.333V15.833C16.6667 13.476 16.6667 12.2975 15.9345 11.5653C15.2022 10.833 14.0237 10.833 11.6667 10.833L10 12.4997L8.33337 10.833C5.97635 10.833 4.79784 10.833 4.06561 11.5653C3.33337 12.2975 3.33337 13.476 3.33337 15.833V18.333" stroke="black" stroke-opacity="0.2" stroke-width="1.25" stroke-linecap="round" stroke-linejoin="round"/>
<path d="M12.9167 5.41699V4.58366C12.9167 2.97283 11.6109 1.66699 10 1.66699C8.38921 1.66699 7.08337 2.97283 7.08337 4.58366V5.41699C7.08337 7.02783 8.38921 8.33364 10 8.33364C11.6109 8.33364 12.9167 7.02783 12.9167 5.41699Z" stroke="#808081" stroke-width="1.25" stroke-linecap="round" stroke-linejoin="round"/>
<path d="M12.9167 5.41699V4.58366C12.9167 2.97283 11.6109 1.66699 10 1.66699C8.38921 1.66699 7.08337 2.97283 7.08337 4.58366V5.41699C7.08337 7.02783 8.38921 8.33364 10 8.33364C11.6109 8.33364 12.9167 7.02783 12.9167 5.41699Z" stroke="black" stroke-opacity="0.2" stroke-width="1.25" stroke-linecap="round" stroke-linejoin="round"/>
<path d="M12.9167 5.41699V4.58366C12.9167 2.97283 11.6109 1.66699 10 1.66699C8.38921 1.66699 7.08337 2.97283 7.08337 4.58366V5.41699C7.08337 7.02783 8.38921 8.33364 10 8.33364C11.6109 8.33364 12.9167 7.02783 12.9167 5.41699Z" stroke="black" stroke-opacity="0.2" stroke-width="1.25" stroke-linecap="round" stroke-linejoin="round"/>
<path d="M13.3334 13.333V15.833M14.5834 14.583H12.0834" stroke="#808081" stroke-width="1.25" stroke-linecap="round" stroke-linejoin="round"/>
<path d="M13.3334 13.333V15.833M14.5834 14.583H12.0834" stroke="black" stroke-opacity="0.2" stroke-width="1.25" stroke-linecap="round" stroke-linejoin="round"/>
<path d="M13.3334 13.333V15.833M14.5834 14.583H12.0834" stroke="black" stroke-opacity="0.2" stroke-width="1.25" stroke-linecap="round" stroke-linejoin="round"/>
</svg>
