<svg width="101" height="100" viewBox="0 0 101 100" fill="none" xmlns="http://www.w3.org/2000/svg">
<circle cx="50.5" cy="50" r="50" fill="#F0FAF4"/>
<rect x="15" y="14" width="72" height="72" rx="36" fill="#00B4B8"/>
<path opacity="0.4" d="M42.25 43.75V46.9098C42.25 48.4134 42.25 49.1651 42.6234 49.7692C42.9968 50.3734 43.6691 50.7096 45.0139 51.382L51 54.375L56.9861 51.382C58.3309 50.7096 59.0033 50.3734 59.3766 49.7692C59.75 49.1651 59.75 48.4134 59.75 46.9098V43.7513L61.2715 44.7657C62.3636 45.4938 62.9098 45.8578 63.2056 46.413C63.5016 46.9682 63.4994 47.6208 63.495 48.9258C63.4898 50.4969 63.4751 52.0977 63.4348 53.7176C63.3388 57.5609 63.2909 59.4825 61.8779 60.8955C60.4649 62.3086 58.5173 62.3572 54.6221 62.4546C52.1989 62.5151 49.7971 62.5151 47.3739 62.4546C43.4788 62.3572 41.5312 62.3086 40.1182 60.8955C38.7052 59.4825 38.6572 57.5609 38.5613 53.7176C38.5209 52.0977 38.5063 50.4969 38.501 48.9258C38.4966 47.6208 38.4944 46.9682 38.7903 46.413C39.0863 45.8578 39.6323 45.4938 40.7245 44.7657L42.248 43.75H42.25Z" fill="white"/>
<path d="M42.248 43.75L40.7245 44.7657C39.6323 45.4938 39.0863 45.8578 38.7903 46.413C38.4944 46.9682 38.4966 47.6208 38.501 48.9258C38.5063 50.4969 38.5209 52.0978 38.5613 53.7176C38.6572 57.5609 38.7052 59.4825 40.1182 60.8955C41.5312 62.3086 43.4788 62.3572 47.3739 62.4546C49.7971 62.5151 52.1989 62.5151 54.6221 62.4546C58.5173 62.3572 60.4649 62.3086 61.8779 60.8955C63.2909 59.4825 63.3388 57.5609 63.4348 53.7176C63.4751 52.0978 63.4898 50.4969 63.495 48.9258C63.4994 47.6208 63.5016 46.9682 63.2056 46.413C62.9098 45.8578 62.3636 45.4938 61.2715 44.7657L59.748 43.75" stroke="white" stroke-width="1.5" stroke-linejoin="round"/>
<path d="M38.5 47.5L47.1413 52.6848C49.0213 53.8128 49.9613 54.3767 51 54.3767C52.0387 54.3767 52.9787 53.8128 54.8587 52.6848L63.5 47.5" stroke="white" stroke-width="1.5" stroke-linejoin="round"/>
<path d="M42.25 50V42.5C42.25 40.143 42.25 38.9645 42.9822 38.2322C43.7145 37.5 44.893 37.5 47.25 37.5H54.75C57.107 37.5 58.2855 37.5 59.0178 38.2322C59.75 38.9645 59.75 40.143 59.75 42.5V50" stroke="white" stroke-width="1.5"/>
<path d="M48.5 47.5H53.5M48.5 42.5H53.5" stroke="white" stroke-width="1.5" stroke-linecap="round" stroke-linejoin="round"/>
</svg>
