<svg width="20" height="20" viewBox="0 0 20 20" fill="none" xmlns="http://www.w3.org/2000/svg">
<path d="M10 4.58301H17.5" stroke="#808081" stroke-width="1.25" stroke-linecap="round"/>
<path d="M10 4.58301H17.5" stroke="black" stroke-opacity="0.2" stroke-width="1.25" stroke-linecap="round"/>
<path d="M10 4.58301H17.5" stroke="black" stroke-opacity="0.2" stroke-width="1.25" stroke-linecap="round"/>
<path d="M10 10H17.5" stroke="#808081" stroke-width="1.25" stroke-linecap="round"/>
<path d="M10 10H17.5" stroke="black" stroke-opacity="0.2" stroke-width="1.25" stroke-linecap="round"/>
<path d="M10 10H17.5" stroke="black" stroke-opacity="0.2" stroke-width="1.25" stroke-linecap="round"/>
<path d="M10 15.417H17.5" stroke="#808081" stroke-width="1.25" stroke-linecap="round"/>
<path d="M10 15.417H17.5" stroke="black" stroke-opacity="0.2" stroke-width="1.25" stroke-linecap="round"/>
<path d="M10 15.417H17.5" stroke="black" stroke-opacity="0.2" stroke-width="1.25" stroke-linecap="round"/>
<path d="M6.66667 4.58333H2.5M3.36806 6.66667L5.79861 2.5M5.79861 6.66667L3.36806 2.5" stroke="#808081" stroke-width="1.25" stroke-linecap="round" stroke-linejoin="round"/>
<path d="M6.66667 4.58333H2.5M3.36806 6.66667L5.79861 2.5M5.79861 6.66667L3.36806 2.5" stroke="black" stroke-opacity="0.2" stroke-width="1.25" stroke-linecap="round" stroke-linejoin="round"/>
<path d="M6.66667 4.58333H2.5M3.36806 6.66667L5.79861 2.5M5.79861 6.66667L3.36806 2.5" stroke="black" stroke-opacity="0.2" stroke-width="1.25" stroke-linecap="round" stroke-linejoin="round"/>
<path d="M6.66667 15.4163H2.5M3.36806 17.4997L5.79861 13.333M5.79861 17.4997L3.36806 13.333" stroke="#808081" stroke-width="1.25" stroke-linecap="round" stroke-linejoin="round"/>
<path d="M6.66667 15.4163H2.5M3.36806 17.4997L5.79861 13.333M5.79861 17.4997L3.36806 13.333" stroke="black" stroke-opacity="0.2" stroke-width="1.25" stroke-linecap="round" stroke-linejoin="round"/>
<path d="M6.66667 15.4163H2.5M3.36806 17.4997L5.79861 13.333M5.79861 17.4997L3.36806 13.333" stroke="black" stroke-opacity="0.2" stroke-width="1.25" stroke-linecap="round" stroke-linejoin="round"/>
</svg>
