<svg xmlns="http://www.w3.org/2000/svg" width="20" height="20" viewBox="0 0 20 20" fill="none">
    <path d="M10 4.58398H17.5" stroke="#808081" stroke-width="1.25" stroke-linecap="round"/>
    <path d="M10 4.58398H17.5" stroke="black" stroke-opacity="0.2" stroke-width="1.25" stroke-linecap="round"/>
    <path d="M10 4.58398H17.5" stroke="black" stroke-opacity="0.2" stroke-width="1.25" stroke-linecap="round"/>
    <path d="M10 10H17.5" stroke="#808081" stroke-width="1.25" stroke-linecap="round"/>
    <path d="M10 10H17.5" stroke="black" stroke-opacity="0.2" stroke-width="1.25" stroke-linecap="round"/>
    <path d="M10 10H17.5" stroke="black" stroke-opacity="0.2" stroke-width="1.25" stroke-linecap="round"/>
    <path d="M10 15.416H17.5" stroke="#808081" stroke-width="1.25" stroke-linecap="round"/>
    <path d="M10 15.416H17.5" stroke="black" stroke-opacity="0.2" stroke-width="1.25" stroke-linecap="round"/>
    <path d="M10 15.416H17.5" stroke="black" stroke-opacity="0.2" stroke-width="1.25" stroke-linecap="round"/>
    <path d="M6.66667 4.58333H2.5M3.36806 6.66667L5.79861 2.5M5.79861 6.66667L3.36806 2.5" stroke="#808081" stroke-width="1.25" stroke-linecap="round" stroke-linejoin="round"/>
    <path d="M6.66667 4.58333H2.5M3.36806 6.66667L5.79861 2.5M5.79861 6.66667L3.36806 2.5" stroke="black" stroke-opacity="0.2" stroke-width="1.25" stroke-linecap="round" stroke-linejoin="round"/>
    <path d="M6.66667 4.58333H2.5M3.36806 6.66667L5.79861 2.5M5.79861 6.66667L3.36806 2.5" stroke="black" stroke-opacity="0.2" stroke-width="1.25" stroke-linecap="round" stroke-linejoin="round"/>
    <path d="M6.66667 15.4173H2.5M3.36806 17.5007L5.79861 13.334M5.79861 17.5007L3.36806 13.334" stroke="#808081" stroke-width="1.25" stroke-linecap="round" stroke-linejoin="round"/>
    <path d="M6.66667 15.4173H2.5M3.36806 17.5007L5.79861 13.334M5.79861 17.5007L3.36806 13.334" stroke="black" stroke-opacity="0.2" stroke-width="1.25" stroke-linecap="round" stroke-linejoin="round"/>
    <path d="M6.66667 15.4173H2.5M3.36806 17.5007L5.79861 13.334M5.79861 17.5007L3.36806 13.334" stroke="black" stroke-opacity="0.2" stroke-width="1.25" stroke-linecap="round" stroke-linejoin="round"/>
</svg>