<svg xmlns="http://www.w3.org/2000/svg" viewBox="0 0 809.8 121.01"><defs><style>.cls-1{fill:#00b4b8;}</style></defs><g id="Layer_2" data-name="Layer 2"><g id="Layer_1-2" data-name="Layer 1"><path class="cls-1" d="M189.21,103.87q-12.44,0-21.11-5.5a35.1,35.1,0,0,1-13.21-15.26,53.21,53.21,0,0,1-4.54-22.61,53.2,53.2,0,0,1,4.54-22.6A35.19,35.19,0,0,1,168.1,22.63q8.68-5.49,21.11-5.49,14.44,0,23.79,7.34a37.37,37.37,0,0,1,12.86,19.78L215.4,47a27.93,27.93,0,0,0-9.08-14.68Q199.78,27,189.21,27q-9.32,0-15.5,4.22A25.88,25.88,0,0,0,164.4,43a46.4,46.4,0,0,0-3.18,17.54A45,45,0,0,0,164.29,78a25.78,25.78,0,0,0,9.36,11.8Q179.9,94,189.21,94q10.57,0,17.11-5.41A28.08,28.08,0,0,0,215.4,74l10.46,2.77A37.52,37.52,0,0,1,213,96.5Q203.66,103.87,189.21,103.87Z"/><path class="cls-1" d="M250.55,103.87a24.12,24.12,0,0,1-11.71-2.58,17.67,17.67,0,0,1-7.11-6.79,19.61,19.61,0,0,1-.52-17.78,16.67,16.67,0,0,1,5.29-6,27.53,27.53,0,0,1,8.15-3.79,97.71,97.71,0,0,1,10-2.11c3.68-.6,7.4-1.14,11.18-1.65s7.31-1,10.58-1.44l-3.7,2.14q.18-8.32-3.32-12.32c-2.34-2.66-6.35-4-12.06-4a18.72,18.72,0,0,0-9.91,2.58,14,14,0,0,0-6,8.35l-9.77-2.95a22.89,22.89,0,0,1,8.73-12.89Q246.85,38,257.43,38A32.51,32.51,0,0,1,272,41a18,18,0,0,1,8.76,9.17,19.74,19.74,0,0,1,1.67,6.27,67,67,0,0,1,.35,7.08v38.62h-9.13v-15l2.14,1.39A25.7,25.7,0,0,1,266,100Q259.63,103.88,250.55,103.87Zm1.56-8.62a21.7,21.7,0,0,0,9.63-2A18.19,18.19,0,0,0,268.3,88a17.13,17.13,0,0,0,3.24-7.14,25,25,0,0,0,.95-6.45q.09-3.55.09-5.46l3.58,1.56-9.88,1.33q-4.86.63-9.2,1.36a73.22,73.22,0,0,0-7.8,1.7A24.94,24.94,0,0,0,244.51,77a10.68,10.68,0,0,0-3.59,3.27,8.63,8.63,0,0,0-1.36,4.94,9.74,9.74,0,0,0,1.31,4.86,9.6,9.6,0,0,0,4,3.76A15.51,15.51,0,0,0,252.11,95.25Z"/><path class="cls-1" d="M292.06,102.13V39.69h9.19V54.78l-1.5-2a23,23,0,0,1,2.86-5.31,20.69,20.69,0,0,1,9.46-7,24,24,0,0,1,6.24-1.24,20.68,20.68,0,0,1,6,.43v9.66a19.5,19.5,0,0,0-7.12-.47A14.4,14.4,0,0,0,310,51.72a15.09,15.09,0,0,0-4.66,5.2,21.92,21.92,0,0,0-2.28,6.62,40.59,40.59,0,0,0-.64,7.26v31.33Z"/><path class="cls-1" d="M355.37,103.87a30.73,30.73,0,0,1-16-4.08A28,28,0,0,1,328.66,88.4a36.46,36.46,0,0,1-3.82-17.08A39,39,0,0,1,328.6,53.6,27.67,27.67,0,0,1,339.09,42,30,30,0,0,1,354.91,38q9.42,0,16,4.33a26.39,26.39,0,0,1,9.95,12.37q3.32,8,2.86,19.14H373.35V70.1q-.17-11.5-4.68-17.2t-13.42-5.69q-9.54,0-14.51,6.13t-5,17.57q0,11,5,17.12t14.17,6.07a20,20,0,0,0,10.75-2.84,19.14,19.14,0,0,0,7.17-8.15l9.89,3.41a27.92,27.92,0,0,1-11,12.81A30.52,30.52,0,0,1,355.37,103.87ZM332.3,73.8V65.54h46.14V73.8Z"/><path class="cls-1" d="M425,103.87q-12.44,0-21.11-5.5a35,35,0,0,1-13.2-15.26,53.06,53.06,0,0,1-4.54-22.61,53,53,0,0,1,4.54-22.6,35.1,35.1,0,0,1,13.2-15.27q8.69-5.49,21.11-5.49t21.16,5.49A34.93,34.93,0,0,1,459.38,37.9a53.35,53.35,0,0,1,4.51,22.6,53.36,53.36,0,0,1-4.51,22.61A34.85,34.85,0,0,1,446.2,98.37Q437.53,103.88,425,103.87ZM425,94q9.3.06,15.52-4.19A25.66,25.66,0,0,0,449.87,78,46.12,46.12,0,0,0,453,60.5,45.82,45.82,0,0,0,449.87,43a25.46,25.46,0,0,0-9.31-11.74Q434.35,27,425,27t-15.47,4.16a25.93,25.93,0,0,0-9.28,11.8,46.63,46.63,0,0,0-3.18,17.57A44.64,44.64,0,0,0,400.18,78a25.85,25.85,0,0,0,9.33,11.76Q415.74,94,425,94Z"/><path class="cls-1" d="M469.62,102.13V39.69h9.25V56.4H480v45.73Zm44.51,0V70.85a45.7,45.7,0,0,0-.78-8.55,22.51,22.51,0,0,0-2.71-7.37,14.45,14.45,0,0,0-5.21-5.18,16.15,16.15,0,0,0-8.24-1.91,18.37,18.37,0,0,0-7,1.3,14.14,14.14,0,0,0-5.41,4,18.72,18.72,0,0,0-3.49,6.68A32.08,32.08,0,0,0,480,69.24l-6.76-2.09a34.49,34.49,0,0,1,3.26-15.58,23.66,23.66,0,0,1,9.2-10,27,27,0,0,1,14-3.5A25.34,25.34,0,0,1,510,40,20.81,20.81,0,0,1,517.14,45a24.52,24.52,0,0,1,4.45,7.05A36.23,36.23,0,0,1,523.88,60a47.09,47.09,0,0,1,.66,7.61v34.51Z"/><path class="cls-1" d="M533.73,102.13V18.88h10.35V56.17h-1.15v46Zm28.74,1.74q-8.79,0-14.8-4.37a27,27,0,0,1-9.11-11.85,43.66,43.66,0,0,1-3.09-16.8A43.75,43.75,0,0,1,538.56,54a26.32,26.32,0,0,1,9.14-11.73q6-4.29,14.83-4.28a25.74,25.74,0,0,1,14.94,4.3A27.81,27.81,0,0,1,587.1,54a40.67,40.67,0,0,1,3.35,16.82,40.68,40.68,0,0,1-3.35,16.83,28.14,28.14,0,0,1-9.63,11.82A25.59,25.59,0,0,1,562.47,103.87Zm-1.27-9.43a16.27,16.27,0,0,0,10.23-3.12,18.77,18.77,0,0,0,6.07-8.47,33.64,33.64,0,0,0,2-12,33.74,33.74,0,0,0-2-11.91,18.37,18.37,0,0,0-6.13-8.44,16.93,16.93,0,0,0-10.49-3.12,16.32,16.32,0,0,0-10.06,3,17.66,17.66,0,0,0-6,8.27,35,35,0,0,0-2,12.22A35.6,35.6,0,0,0,544.86,83a17.71,17.71,0,0,0,6,8.39A16.77,16.77,0,0,0,561.2,94.44Z"/><path class="cls-1" d="M624,103.87a29.63,29.63,0,0,1-16-4.22A28,28,0,0,1,597.56,88a38.51,38.51,0,0,1-3.64-17.12,38,38,0,0,1,3.7-17.23,27.76,27.76,0,0,1,10.46-11.53,32.91,32.91,0,0,1,32,.06,27.49,27.49,0,0,1,10.38,11.62,38.57,38.57,0,0,1,3.62,17.08,38.56,38.56,0,0,1-3.65,17.2,27.63,27.63,0,0,1-10.4,11.63A30,30,0,0,1,624,103.87Zm0-9.77q9.72,0,14.46-6.48t4.74-16.77q0-10.57-4.8-16.85T624,47.73a18.31,18.31,0,0,0-10.75,3,17.65,17.65,0,0,0-6.3,8.15,32.17,32.17,0,0,0-2.08,12q0,10.53,4.85,16.89T624,94.1Z"/><path class="cls-1" d="M678.79,103.87a24.11,24.11,0,0,1-11.7-2.58A17.63,17.63,0,0,1,660,94.5a19.69,19.69,0,0,1-.52-17.78,16.76,16.76,0,0,1,5.29-6,27.59,27.59,0,0,1,8.16-3.79,97.48,97.48,0,0,1,10-2.11c3.68-.6,7.41-1.14,11.19-1.65s7.3-1,10.58-1.44l-3.7,2.14q.16-8.32-3.33-12.32t-12.05-4a18.76,18.76,0,0,0-9.92,2.58q-4.25,2.57-6,8.35l-9.77-2.95a22.8,22.8,0,0,1,8.73-12.89q6.46-4.68,17-4.68a32.51,32.51,0,0,1,14.6,3A17.91,17.91,0,0,1,709,50.16a19.49,19.49,0,0,1,1.68,6.27,69.78,69.78,0,0,1,.35,7.08v38.62h-9.14v-15l2.14,1.39A25.64,25.64,0,0,1,694.2,100Q687.87,103.88,678.79,103.87Zm1.56-8.62a21.67,21.67,0,0,0,9.63-2A18,18,0,0,0,696.54,88a17,17,0,0,0,3.24-7.14,24.15,24.15,0,0,0,1-6.45q.09-3.55.09-5.46l3.59,1.56-9.89,1.33q-4.86.63-9.19,1.36a72.9,72.9,0,0,0-7.81,1.7A25.5,25.5,0,0,0,672.75,77a10.65,10.65,0,0,0-3.58,3.27,8.55,8.55,0,0,0-1.36,4.94,9.73,9.73,0,0,0,1.3,4.86,9.63,9.63,0,0,0,4,3.76A15.47,15.47,0,0,0,680.35,95.25Z"/><path class="cls-1" d="M720.31,102.13V39.69h9.19V54.78l-1.5-2a22.62,22.62,0,0,1,2.86-5.31,17.05,17.05,0,0,1,4-4,17.66,17.66,0,0,1,5.49-3,24,24,0,0,1,6.24-1.24,20.68,20.68,0,0,1,6,.43v9.66a19.46,19.46,0,0,0-7.11-.47,14.47,14.47,0,0,0-7.17,2.84,15.06,15.06,0,0,0-4.65,5.2,22.21,22.21,0,0,0-2.29,6.62,41.53,41.53,0,0,0-.63,7.26v31.33Z"/><path class="cls-1" d="M781.07,103.87a25.46,25.46,0,0,1-15-4.37,28.29,28.29,0,0,1-9.63-11.82,40.22,40.22,0,0,1-3.38-16.83A40.2,40.2,0,0,1,756.47,54a28,28,0,0,1,9.63-11.77A25.6,25.6,0,0,1,781,38q8.85,0,14.86,4.28A26.4,26.4,0,0,1,805,54a43.75,43.75,0,0,1,3.09,16.88A43.66,43.66,0,0,1,805,87.65a27,27,0,0,1-9.11,11.85Q789.86,103.87,781.07,103.87Zm1.27-9.43a16.81,16.81,0,0,0,10.35-3,17.78,17.78,0,0,0,6-8.39,35.6,35.6,0,0,0,1.93-12.17,35.46,35.46,0,0,0-1.93-12.22,17.54,17.54,0,0,0-5.93-8.27,16.42,16.42,0,0,0-10.12-3,16.91,16.91,0,0,0-10.49,3.12A18.37,18.37,0,0,0,766,58.94a33.74,33.74,0,0,0-2,11.91,33.64,33.64,0,0,0,2,12,18.68,18.68,0,0,0,6.1,8.47A16.3,16.3,0,0,0,782.34,94.44Zm18.27,7.69v-46h-1.15V18.88H809.8v83.25Z"/><path class="cls-1" d="M86.77,98.1H71a20.47,20.47,0,0,1-14.38-5.86L52.34,88,48,92.23A20.45,20.45,0,0,1,33.65,98.1H17.9A17.92,17.92,0,0,1,0,80.2V17.9A17.92,17.92,0,0,1,17.9,0H86.77a17.92,17.92,0,0,1,17.9,17.9V80.2A17.92,17.92,0,0,1,86.77,98.1ZM60.3,80.24l4.13,4A9.39,9.39,0,0,0,71,87H86.77a6.77,6.77,0,0,0,6.76-6.77V17.9a6.76,6.76,0,0,0-6.76-6.76H17.9a6.76,6.76,0,0,0-6.76,6.76V80.2A6.77,6.77,0,0,0,17.9,87H33.65a9.4,9.4,0,0,0,6.61-2.7l4.11-4-20-19.6a22.26,22.26,0,0,1,28-34.43,22.26,22.26,0,0,1,28,34.44l-.29.28ZM39.7,33.43a10.88,10.88,0,0,0-1.14.06,11.24,11.24,0,0,0-9.88,9.69A11.09,11.09,0,0,0,32,52.6l.31.3,20,19.55L72.62,52.61A11.1,11.1,0,0,0,76,43.18a11.24,11.24,0,0,0-9.88-9.69A11.09,11.09,0,0,0,58,35.83a9.15,9.15,0,0,1-11.41,0A11.09,11.09,0,0,0,39.7,33.43Z"/><path class="cls-1" d="M99.1,121H5.57a5.57,5.57,0,1,1,0-11.14H99.1a5.57,5.57,0,1,1,0,11.14Z"/></g></g></svg>
