<svg width="20" height="20" viewBox="0 0 20 20" fill="none" xmlns="http://www.w3.org/2000/svg">
<path d="M5.83337 15V10M10 15V7.5M14.1667 15V11.6667" stroke="#808081" stroke-width="1.25" stroke-linecap="round" stroke-linejoin="round"/>
<path d="M17.9166 4.58301C17.9166 5.96372 16.7974 7.08301 15.4166 7.08301C14.0359 7.08301 12.9166 5.96372 12.9166 4.58301C12.9166 3.2023 14.0359 2.08301 15.4166 2.08301C16.7974 2.08301 17.9166 3.2023 17.9166 4.58301Z" stroke="#808081" stroke-width="1.25" stroke-linejoin="round"/>
<path d="M10.7895 2.08301H3.75004C2.82957 2.08301 2.08337 2.8292 2.08337 3.74967V16.2497C2.08337 17.1702 2.82957 17.9163 3.75004 17.9163H16.25C17.1705 17.9163 17.9167 17.1702 17.9167 16.2497V9.21017" stroke="#808081" stroke-width="1.25" stroke-linecap="round" stroke-linejoin="round"/>
</svg>
