<svg width="20" height="20" viewBox="0 0 20 20" fill="none" xmlns="http://www.w3.org/2000/svg">
<path d="M3.33333 15.5382V6.71187C3.33333 4.33353 3.33333 3.14436 4.06557 2.40551C4.7978 1.66666 5.97631 1.66666 8.33333 1.66666H11.6667C14.0237 1.66666 15.2022 1.66666 15.9344 2.40551C16.6667 3.14436 16.6667 4.33353 16.6667 6.71187V15.5382C16.6667 16.7979 16.6667 17.4277 16.2817 17.6757C15.6526 18.0809 14.6801 17.2312 14.1909 16.9227C13.7867 16.6678 13.5847 16.5404 13.3604 16.5331C13.1181 16.5251 12.9124 16.6473 12.4757 16.9227L10.8833 17.927C10.4537 18.1978 10.239 18.3333 10 18.3333C9.761 18.3333 9.54625 18.1978 9.11666 17.927L7.52427 16.9227C7.12012 16.6678 6.91805 16.5404 6.69377 16.5331C6.45143 16.5251 6.24577 16.6473 5.80906 16.9227C5.31996 17.2312 4.34739 18.0809 3.71829 17.6757C3.33333 17.4277 3.33333 16.7979 3.33333 15.5382Z" stroke="#141B34" stroke-width="1.5" stroke-linecap="round" stroke-linejoin="round"/>
<path d="M9.16667 9.16666H6.66667" stroke="#141B34" stroke-width="1.5" stroke-linecap="round" stroke-linejoin="round"/>
<path d="M11.6667 5.83334H6.66667" stroke="#141B34" stroke-width="1.5" stroke-linecap="round" stroke-linejoin="round"/>
</svg>
