<svg width="402" height="65" viewBox="0 0 402 65" fill="none" xmlns="http://www.w3.org/2000/svg">
<path d="M1.48092 30.8672C17.0578 29.313 29.3783 17.0199 30.936 1.47762C31.1335 -0.492541 34.0113 -0.492542 34.2088 1.47762C35.7665 17.0199 48.087 29.313 63.6639 30.8672C65.6384 31.0643 65.6384 33.9357 63.6639 34.1328C48.087 35.687 35.7665 47.9801 34.2088 63.5224C34.0113 65.4925 31.1335 65.4925 30.936 63.5224C29.3783 47.9801 17.0578 35.687 1.48092 34.1328C-0.493638 33.9357 -0.493639 31.0643 1.48092 30.8672Z" fill="#00B4B8"/>
<path d="M4.40934 59.4047C17.2432 43.7538 17.2432 21.2462 4.40934 5.59525C3.7586 4.80167 4.81243 3.75019 5.60777 4.39948C21.2936 17.2048 43.8513 17.2048 59.5371 4.39949C60.3325 3.75019 61.3863 4.80167 60.7356 5.59525C47.9017 21.2462 47.9017 43.7538 60.7356 59.4047C61.3863 60.1983 60.3325 61.2498 59.5371 60.6005C43.8513 47.7952 21.2936 47.7952 5.60777 60.6005C4.81243 61.2498 3.7586 60.1983 4.40934 59.4047Z" fill="#00B4B8" fill-opacity="0.21"/>
<path d="M104.213 50.0426C101.907 50.0426 99.7387 49.5888 97.7084 48.6813C95.6782 47.7576 93.8916 46.4854 92.3486 44.8648C90.8218 43.2442 89.6199 41.3724 88.7428 39.2494C87.882 37.1102 87.4516 34.8252 87.4516 32.3943C87.4516 29.9472 87.882 27.6622 88.7428 25.5392C89.6199 23.4 90.8218 21.5282 92.3486 19.9238C93.8916 18.3032 95.6782 17.0392 97.7084 16.1316C99.7387 15.2079 101.907 14.746 104.213 14.746C106.975 14.746 109.516 15.3861 111.839 16.6664C114.162 17.9305 116.086 19.624 117.613 21.747L112.302 24.5911C111.344 23.4081 110.15 22.4601 108.721 21.747C107.307 21.0339 105.805 20.6774 104.213 20.6774C102.719 20.6774 101.314 20.9853 99.9986 21.6011C98.683 22.2008 97.5298 23.0435 96.539 24.1293C95.5482 25.1989 94.7767 26.4467 94.2245 27.8728C93.6723 29.2828 93.3962 30.7899 93.3962 32.3943C93.3962 34.0149 93.6723 35.5302 94.2245 36.9401C94.793 38.35 95.5726 39.5979 96.5634 40.6837C97.5541 41.7533 98.6992 42.596 99.9986 43.2118C101.314 43.8114 102.719 44.1112 104.213 44.1112C105.838 44.1112 107.348 43.7547 108.745 43.0416C110.158 42.3124 111.344 41.3562 112.302 40.1732L117.613 43.0416C116.086 45.1484 114.162 46.8419 111.839 48.1222C109.516 49.4025 106.975 50.0426 104.213 50.0426Z" fill="#00B4B8"/>
<path d="M139.783 25.1016H145.728V49.4106H139.783L139.515 46.3963C138.849 47.4821 137.964 48.3653 136.86 49.0459C135.771 49.7104 134.48 50.0426 132.986 50.0426C131.183 50.0426 129.494 49.7023 127.918 49.0216C126.343 48.341 124.954 47.401 123.752 46.2018C122.567 45.0025 121.633 43.6169 120.95 42.045C120.285 40.473 119.952 38.7876 119.952 36.9887C119.952 35.2547 120.268 33.626 120.902 32.1026C121.551 30.5792 122.453 29.2422 123.606 28.0916C124.759 26.941 126.091 26.0416 127.602 25.3933C129.112 24.7451 130.736 24.421 132.474 24.421C134.082 24.421 135.52 24.7775 136.786 25.4906C138.07 26.2036 139.158 27.1112 140.051 28.2132L139.783 25.1016ZM132.84 44.33C134.107 44.33 135.227 44.014 136.202 43.382C137.176 42.7499 137.94 41.8991 138.492 40.8295C139.044 39.7437 139.32 38.5526 139.32 37.2561C139.32 35.9434 139.044 34.7523 138.492 33.6827C137.94 32.5969 137.168 31.738 136.177 31.1059C135.203 30.4739 134.09 30.1579 132.84 30.1579C131.589 30.1579 130.444 30.482 129.404 31.1302C128.381 31.7623 127.561 32.6131 126.944 33.6827C126.343 34.7523 126.042 35.9434 126.042 37.2561C126.042 38.5688 126.351 39.7599 126.968 40.8295C127.585 41.8991 128.406 42.7499 129.429 43.382C130.468 44.014 131.605 44.33 132.84 44.33Z" fill="#00B4B8"/>
<path d="M151.094 49.4106L151.07 25.1016H157.014L157.039 27.2651C157.867 26.39 158.858 25.7012 160.011 25.1989C161.164 24.6803 162.407 24.421 163.738 24.421C164.632 24.421 165.525 24.5506 166.418 24.8099L164.08 30.7899C163.462 30.5468 162.845 30.4253 162.228 30.4253C161.27 30.4253 160.393 30.6603 159.597 31.1302C158.817 31.584 158.192 32.2079 157.721 33.002C157.266 33.7799 157.039 34.6469 157.039 35.6031V49.4106H151.094Z" fill="#00B4B8"/>
<path d="M179.217 50.0426C176.975 50.0426 174.929 49.4673 173.077 48.3167C171.242 47.166 169.772 45.6184 168.667 43.6737C167.579 41.7289 167.035 39.5816 167.035 37.2318C167.035 35.4653 167.352 33.8123 167.985 32.2728C168.619 30.717 169.488 29.3557 170.592 28.1889C171.713 27.0058 173.012 26.0821 174.49 25.4176C175.968 24.7532 177.544 24.421 179.217 24.421C181.117 24.421 182.855 24.8261 184.43 25.6364C186.022 26.4305 187.37 27.5244 188.475 28.9181C189.579 30.3118 190.383 31.9 190.887 33.6827C191.39 35.4653 191.504 37.329 191.228 39.2737H173.418C173.646 40.1813 174.019 40.9997 174.539 41.7289C175.059 42.442 175.717 43.0173 176.512 43.4549C177.308 43.8762 178.21 44.095 179.217 44.1112C180.256 44.1274 181.198 43.8843 182.043 43.382C182.904 42.8634 183.618 42.1665 184.187 41.2914L190.253 42.7013C189.262 44.8567 187.784 46.6231 185.819 48.0006C183.854 49.3619 181.653 50.0426 179.217 50.0426ZM173.223 34.8252H185.21C185.031 33.8528 184.65 32.9777 184.065 32.1998C183.496 31.4057 182.79 30.7737 181.945 30.3037C181.101 29.8338 180.191 29.5988 179.217 29.5988C178.242 29.5988 177.341 29.8338 176.512 30.3037C175.684 30.7575 174.977 31.3814 174.393 32.1755C173.824 32.9534 173.435 33.8366 173.223 34.8252Z" fill="#00B4B8"/>
<path d="M219.163 50.0426C216.921 50.0426 214.875 49.4673 213.023 48.3167C211.188 47.166 209.718 45.6265 208.613 43.698C207.525 41.7533 206.981 39.606 206.981 37.2561C206.981 35.4734 207.298 33.8123 207.931 32.2728C208.565 30.717 209.434 29.3557 210.538 28.1889C211.659 27.0058 212.958 26.0821 214.436 25.4176C215.914 24.7532 217.49 24.421 219.163 24.421C221.404 24.421 223.442 24.9963 225.278 26.1469C227.129 27.2975 228.599 28.8452 229.687 30.7899C230.792 32.7346 231.344 34.89 231.344 37.2561C231.344 39.0225 231.027 40.6756 230.394 42.2151C229.761 43.7547 228.884 45.116 227.763 46.299C226.658 47.4659 225.367 48.3815 223.889 49.0459C222.427 49.7104 220.852 50.0426 219.163 50.0426ZM219.163 44.1112C220.348 44.1112 221.412 43.7952 222.354 43.1632C223.296 42.5311 224.035 41.6965 224.571 40.6593C225.123 39.6222 225.4 38.4877 225.4 37.2561C225.4 35.992 225.115 34.8414 224.547 33.8042C223.995 32.7508 223.239 31.9162 222.281 31.3004C221.339 30.6684 220.3 30.3524 219.163 30.3524C217.993 30.3524 216.937 30.6684 215.995 31.3004C215.053 31.9324 214.306 32.7751 213.754 33.8285C213.202 34.8819 212.926 36.0244 212.926 37.2561C212.926 38.5364 213.21 39.6951 213.778 40.7323C214.347 41.7695 215.102 42.596 216.044 43.2118C217.002 43.8114 218.042 44.1112 219.163 44.1112Z" fill="#00B4B8"/>
<path d="M257.941 34.0473V49.4106H251.997V35.6031C251.997 34.6469 251.761 33.7799 251.29 33.002C250.819 32.2079 250.186 31.584 249.39 31.1302C248.61 30.6603 247.741 30.4253 246.783 30.4253C245.825 30.4253 244.948 30.6603 244.152 31.1302C243.372 31.584 242.747 32.2079 242.276 33.002C241.821 33.7799 241.594 34.6469 241.594 35.6031V49.4106H235.649L235.625 25.1016H241.569L241.594 27.2651C242.422 26.39 243.413 25.7012 244.566 25.1989C245.719 24.6803 246.962 24.421 248.294 24.421C250.064 24.421 251.68 24.8585 253.142 25.7337C254.604 26.5926 255.765 27.7513 256.626 29.2098C257.503 30.6522 257.941 32.2647 257.941 34.0473Z" fill="#00B4B8"/>
<path d="M275.476 49.4106V15.378H287.901C289.704 15.378 291.328 15.7508 292.773 16.4963C294.235 17.2255 295.388 18.2789 296.233 19.6564C297.094 21.0177 297.524 22.6302 297.524 24.4939C297.524 25.3204 297.402 26.155 297.159 26.9977C296.915 27.8404 296.542 28.6021 296.038 29.2828C295.535 29.9472 294.885 30.4415 294.089 30.7656C295.145 31.0249 296.006 31.4949 296.672 32.1755C297.337 32.8562 297.857 33.6584 298.231 34.5821C298.604 35.4897 298.856 36.4215 298.986 37.3776C299.132 38.3176 299.205 39.1927 299.205 40.003C299.205 41.8019 298.759 43.4063 297.865 44.8162C296.972 46.2261 295.77 47.3443 294.26 48.1708C292.765 48.9973 291.109 49.4106 289.289 49.4106H275.476ZM281.42 44.33H288.68C289.655 44.33 290.532 44.095 291.312 43.625C292.091 43.1551 292.717 42.5068 293.188 41.6803C293.659 40.8538 293.894 39.9139 293.894 38.8605C293.894 37.9529 293.659 37.094 293.188 36.2837C292.717 35.4734 292.091 34.8171 291.312 34.3147C290.532 33.8123 289.655 33.5611 288.68 33.5611H281.42V44.33ZM281.42 28.5535H287.219C288.421 28.5535 289.444 28.1808 290.288 27.4353C291.149 26.6898 291.58 25.7012 291.58 24.4696C291.58 23.1569 291.149 22.1683 290.288 21.5039C289.444 20.8233 288.421 20.4829 287.219 20.4829H281.42V28.5535Z" fill="#00B4B8"/>
<path d="M313.996 50.0426C311.755 50.0426 309.708 49.4673 307.856 48.3167C306.021 47.166 304.551 45.6265 303.447 43.698C302.359 41.7533 301.814 39.606 301.814 37.2561C301.814 35.4734 302.131 33.8123 302.765 32.2728C303.398 30.717 304.267 29.3557 305.371 28.1889C306.492 27.0058 307.792 26.0821 309.27 25.4176C310.748 24.7532 312.323 24.421 313.996 24.421C316.237 24.421 318.276 24.9963 320.111 26.1469C321.963 27.2975 323.433 28.8452 324.521 30.7899C325.625 32.7346 326.177 34.89 326.177 37.2561C326.177 39.0225 325.861 40.6756 325.227 42.2151C324.594 43.7547 323.717 45.116 322.596 46.299C321.492 47.4659 320.2 48.3815 318.722 49.0459C317.261 49.7104 315.685 50.0426 313.996 50.0426ZM313.996 44.1112C315.182 44.1112 316.245 43.7952 317.188 43.1632C318.13 42.5311 318.869 41.6965 319.405 40.6593C319.957 39.6222 320.233 38.4877 320.233 37.2561C320.233 35.992 319.949 34.8414 319.38 33.8042C318.828 32.7508 318.073 31.9162 317.114 31.3004C316.172 30.6684 315.133 30.3524 313.996 30.3524C312.827 30.3524 311.771 30.6684 310.829 31.3004C309.887 31.9324 309.14 32.7751 308.587 33.8285C308.035 34.8819 307.759 36.0244 307.759 37.2561C307.759 38.5364 308.043 39.6951 308.612 40.7323C309.18 41.7695 309.935 42.596 310.877 43.2118C311.836 43.8114 312.875 44.1112 313.996 44.1112Z" fill="#00B4B8"/>
<path d="M348.923 25.1016H354.868V49.4106H348.923L348.655 46.3963C347.989 47.4821 347.104 48.3653 346 49.0459C344.911 49.7104 343.62 50.0426 342.126 50.0426C340.323 50.0426 338.634 49.7023 337.058 49.0216C335.483 48.341 334.094 47.401 332.892 46.2018C331.707 45.0025 330.773 43.6169 330.09 42.045C329.425 40.473 329.092 38.7876 329.092 36.9887C329.092 35.2547 329.408 33.626 330.042 32.1026C330.691 30.5792 331.593 29.2422 332.746 28.0916C333.899 26.941 335.231 26.0416 336.742 25.3933C338.252 24.7451 339.876 24.421 341.614 24.421C343.222 24.421 344.66 24.7775 345.926 25.4906C347.21 26.2036 348.298 27.1112 349.191 28.2132L348.923 25.1016ZM341.98 44.33C343.247 44.33 344.367 44.014 345.342 43.382C346.316 42.7499 347.08 41.8991 347.632 40.8295C348.184 39.7437 348.46 38.5526 348.46 37.2561C348.46 35.9434 348.184 34.7523 347.632 33.6827C347.08 32.5969 346.308 31.738 345.317 31.1059C344.343 30.4739 343.23 30.1579 341.98 30.1579C340.729 30.1579 339.584 30.482 338.544 31.1302C337.521 31.7623 336.701 32.6131 336.084 33.6827C335.483 34.7523 335.182 35.9434 335.182 37.2561C335.182 38.5688 335.491 39.7599 336.108 40.8295C336.725 41.8991 337.546 42.7499 338.569 43.382C339.608 44.014 340.745 44.33 341.98 44.33Z" fill="#00B4B8"/>
<path d="M360.234 49.4106L360.21 25.1016H366.154L366.179 27.2651C367.007 26.39 367.998 25.7012 369.151 25.1989C370.304 24.6803 371.547 24.421 372.879 24.421C373.772 24.421 374.665 24.5506 375.558 24.8099L373.22 30.7899C372.602 30.5468 371.985 30.4253 371.368 30.4253C370.41 30.4253 369.533 30.6603 368.737 31.1302C367.957 31.584 367.332 32.2079 366.861 33.002C366.406 33.7799 366.179 34.6469 366.179 35.6031V49.4106H360.234Z" fill="#00B4B8"/>
<path d="M396.055 12.9472H402V49.4106H396.055V46.3719C395.276 47.4577 394.293 48.341 393.107 49.0216C391.922 49.7023 390.549 50.0426 388.99 50.0426C387.22 50.0426 385.563 49.7104 384.02 49.0459C382.477 48.3815 381.113 47.4659 379.927 46.299C378.758 45.116 377.84 43.7547 377.174 42.2151C376.508 40.6756 376.175 39.0225 376.175 37.2561C376.175 35.4896 376.508 33.8366 377.174 32.2971C377.84 30.7575 378.758 29.4043 379.927 28.2375C381.113 27.0544 382.477 26.1307 384.02 25.4663C385.563 24.8018 387.22 24.4696 388.99 24.4696C390.549 24.4696 391.922 24.8099 393.107 25.4906C394.293 26.155 395.276 27.0382 396.055 28.1402V12.9472ZM389.063 44.33C390.33 44.33 391.451 44.014 392.425 43.382C393.4 42.7499 394.163 41.8991 394.715 40.8295C395.268 39.7437 395.544 38.5526 395.544 37.2561C395.544 35.9434 395.268 34.7523 394.715 33.6827C394.163 32.5969 393.392 31.738 392.401 31.1059C391.426 30.4739 390.314 30.1579 389.063 30.1579C387.813 30.1579 386.667 30.482 385.628 31.1302C384.605 31.7623 383.784 32.6131 383.167 33.6827C382.566 34.7523 382.266 35.9434 382.266 37.2561C382.266 38.5688 382.574 39.7599 383.192 40.8295C383.809 41.8991 384.629 42.7499 385.652 43.382C386.692 44.014 387.829 44.33 389.063 44.33Z" fill="#00B4B8"/>
</svg>
