<svg xmlns="http://www.w3.org/2000/svg" viewBox="0 0 440.11 508.82"><defs><style>.cls-1{fill:#00b4b8;}</style></defs><g id="Layer_2" data-name="Layer 2"><g id="Layer_1-2" data-name="Layer 1"><path class="cls-1" d="M364.83,412.49H298.68a86.06,86.06,0,0,1-60.47-24.64l-18.14-17.72L202,387.8a86.06,86.06,0,0,1-60.52,24.69H75.28A75.36,75.36,0,0,1,0,337.21V75.28A75.36,75.36,0,0,1,75.28,0H364.83a75.36,75.36,0,0,1,75.28,75.28V337.21A75.36,75.36,0,0,1,364.83,412.49ZM253.54,337.38l17.39,17a39.46,39.46,0,0,0,27.75,11.31h66.15a28.49,28.49,0,0,0,28.46-28.46V75.28a28.49,28.49,0,0,0-28.46-28.46H75.28A28.5,28.5,0,0,0,46.82,75.28V337.21a28.5,28.5,0,0,0,28.46,28.46H141.5a39.48,39.48,0,0,0,27.77-11.33l17.32-16.95L102.34,255a93.08,93.08,0,0,1-28.26-78.92c5.1-43.12,40.18-77.54,83.41-81.84a93.46,93.46,0,0,1,62.57,16,93.42,93.42,0,0,1,62.56-16c43.24,4.3,78.32,38.72,83.42,81.84a93.15,93.15,0,0,1-28.31,79l-1.22,1.17ZM167,140.56c-1.6,0-3.21.08-4.82.24-21.19,2.11-39,19.62-41.55,40.74a46.69,46.69,0,0,0,14.14,39.61l1.31,1.27,84,82.22,85.29-83.44a46.72,46.72,0,0,0,14.19-39.66C317,160.42,299.18,142.91,278,140.8a46.74,46.74,0,0,0-33.94,9.86,38.47,38.47,0,0,1-48,0A46.66,46.66,0,0,0,167,140.56Z"/><path class="cls-1" d="M416.7,508.82H23.41a23.41,23.41,0,0,1,0-46.82H416.7a23.41,23.41,0,1,1,0,46.82Z"/></g></g></svg>