<svg width="32" height="32" viewBox="0 0 32 32" fill="none" xmlns="http://www.w3.org/2000/svg">
<path d="M0.727446 15.1962C8.37901 14.431 14.431 8.37901 15.1962 0.727446C15.2932 -0.242482 16.7068 -0.242482 16.8038 0.727446C17.569 8.37901 23.621 14.431 31.2726 15.1962C32.2425 15.2932 32.2425 16.7068 31.2726 16.8038C23.621 17.569 17.569 23.621 16.8038 31.2726C16.7068 32.2425 15.2932 32.2425 15.1962 31.2726C14.431 23.621 8.37901 17.569 0.727446 16.8038C-0.242482 16.7068 -0.242482 15.2932 0.727446 15.1962Z" fill="#00B4B8"/>
<path d="M2.16593 29.2454C8.4701 21.5403 8.4701 10.4597 2.16593 2.75459C1.84628 2.3639 2.36393 1.84625 2.75461 2.1659C10.4597 8.47007 21.5403 8.47007 29.2454 2.1659C29.6361 1.84625 30.1538 2.3639 29.8341 2.75459C23.53 10.4597 23.53 21.5403 29.8341 29.2454C30.1538 29.6361 29.6361 30.1538 29.2454 29.8341C21.5403 23.5299 10.4597 23.5299 2.75461 29.8341C2.36393 30.1538 1.84628 29.6361 2.16593 29.2454Z" fill="#00B4B8" fill-opacity="0.22"/>
</svg>
