<svg preserveAspectRatio="none" width="100%" height="100%" overflow="visible" style="display: block;" viewBox="0 0 20 20" fill="none" xmlns="http://www.w3.org/2000/svg">
<g id="Group 2">
<path id="Vector" d="M9.99983 16.6667C11.7673 16.6647 13.4619 15.9617 14.7117 14.7119C15.9615 13.462 16.6645 11.7675 16.6665 10V6.66667C16.6665 4.89856 15.9641 3.20286 14.7139 1.95262C13.4636 0.702379 11.7679 0 9.99983 0C8.23172 0 6.53603 0.702379 5.28578 1.95262C4.03554 3.20286 3.33316 4.89856 3.33316 6.66667V10C3.33515 11.7675 4.03816 13.462 5.28798 14.7119C6.53779 15.9617 8.23233 16.6647 9.99983 16.6667ZM9.99983 1.66667C11.1803 1.66886 12.322 2.08822 13.2232 2.85066C14.1244 3.61311 14.7271 4.66955 14.9248 5.83333H12.4998C12.2788 5.83333 12.0669 5.92113 11.9106 6.07741C11.7543 6.23369 11.6665 6.44565 11.6665 6.66667C11.6665 6.88768 11.7543 7.09964 11.9106 7.25592C12.0669 7.4122 12.2788 7.5 12.4998 7.5H14.9998V9.16667H12.4998C12.2788 9.16667 12.0669 9.25446 11.9106 9.41074C11.7543 9.56702 11.6665 9.77899 11.6665 10C11.6665 10.221 11.7543 10.433 11.9106 10.5893C12.0669 10.7455 12.2788 10.8333 12.4998 10.8333H14.9248C14.729 11.9979 14.1268 13.0554 13.2251 13.8181C12.3235 14.5807 11.1808 14.9992 9.99983 14.9992C8.8189 14.9992 7.67617 14.5807 6.77453 13.8181C5.8729 13.0554 5.27069 11.9979 5.07483 10.8333H7.49983C7.72084 10.8333 7.9328 10.7455 8.08908 10.5893C8.24536 10.433 8.33316 10.221 8.33316 10C8.33316 9.77899 8.24536 9.56702 8.08908 9.41074C7.9328 9.25446 7.72084 9.16667 7.49983 9.16667H4.99983V7.5H7.49983C7.72084 7.5 7.9328 7.4122 8.08908 7.25592C8.24536 7.09964 8.33316 6.88768 8.33316 6.66667C8.33316 6.44565 8.24536 6.23369 8.08908 6.07741C7.9328 5.92113 7.72084 5.83333 7.49983 5.83333H5.07483C5.27255 4.66955 5.87526 3.61311 6.77647 2.85066C7.67768 2.08822 8.81937 1.66886 9.99983 1.66667Z" fill="var(--fill-0, white)"/>
<path id="Vector_2" d="M19.1667 10C18.9457 10 18.7337 10.0878 18.5774 10.2441C18.4211 10.4004 18.3333 10.6123 18.3333 10.8333C18.3311 12.8218 17.5402 14.7282 16.1342 16.1342C14.7282 17.5402 12.8218 18.3311 10.8333 18.3333H9.16667C7.17829 18.3309 5.27204 17.54 3.86604 16.134C2.46005 14.728 1.66909 12.8217 1.66667 10.8333C1.66667 10.6123 1.57887 10.4004 1.42259 10.2441C1.26631 10.0878 1.05435 10 0.833333 10C0.61232 10 0.400358 10.0878 0.244078 10.2441C0.0877974 10.4004 0 10.6123 0 10.8333C0.00286706 13.2636 0.969559 15.5935 2.68802 17.312C4.40648 19.0304 6.7364 19.9971 9.16667 20H10.8333C13.2636 19.9971 15.5935 19.0304 17.312 17.312C19.0304 15.5935 19.9971 13.2636 20 10.8333C20 10.6123 19.9122 10.4004 19.7559 10.2441C19.5996 10.0878 19.3877 10 19.1667 10Z" fill="var(--fill-0, white)"/>
</g>
</svg>
