<svg width="20" height="20" viewBox="0 0 20 20" fill="none" xmlns="http://www.w3.org/2000/svg">
<path d="M10.8317 5.4165H9.16817C6.77655 5.4165 5.16409 7.97408 6.10619 10.2732C6.23743 10.5935 6.53853 10.8011 6.87169 10.8011H7.4575C7.65496 10.8011 7.82708 10.9417 7.87497 11.142L8.62917 14.2971C8.78642 14.955 9.35159 15.4165 9.99992 15.4165C10.6483 15.4165 11.2134 14.955 11.3707 14.2971L12.1248 11.142C12.1728 10.9417 12.3449 10.8011 12.5423 10.8011H13.1282C13.4613 10.8011 13.7624 10.5935 13.8937 10.2732C14.8358 7.97408 13.2233 5.4165 10.8317 5.4165Z" stroke="white" stroke-width="1.5"/>
<path d="M12.0834 3.33333C12.0834 4.48392 11.1507 5.41667 10.0001 5.41667C8.8495 5.41667 7.91675 4.48392 7.91675 3.33333C7.91675 2.18274 8.8495 1.25 10.0001 1.25C11.1507 1.25 12.0834 2.18274 12.0834 3.33333Z" stroke="white" stroke-width="1.5"/>
<path d="M5.83333 13.75H5" stroke="white" stroke-width="1.5" stroke-linecap="round" stroke-linejoin="round"/>
<path d="M10 17.9165V18.7498" stroke="white" stroke-width="1.5" stroke-linecap="round" stroke-linejoin="round"/>
<path d="M15.0001 13.75H14.1667" stroke="white" stroke-width="1.5" stroke-linecap="round" stroke-linejoin="round"/>
</svg>
