<svg width="20" height="20" viewBox="0 0 20 20" fill="none" xmlns="http://www.w3.org/2000/svg">
<path d="M1.66663 4.16699H3.33329M3.33329 4.16699H11.2155C11.7594 4.16699 12.269 4.43234 12.581 4.87789L15 8.33366L17.412 9.53966C17.9766 9.82199 18.3333 10.3991 18.3333 11.0304V13.3337C18.3333 13.7939 17.9602 14.167 17.5 14.167H15.8333M3.33329 4.16699L1.66663 7.91699V12.8187C1.66663 13.1342 1.84496 13.4228 2.12728 13.564L3.15733 14.079C3.27305 14.1369 3.40064 14.167 3.53002 14.167H4.16663M12.5 14.167H7.49996" stroke="#808081" stroke-width="1.25" stroke-linecap="round" stroke-linejoin="round"/>
<path d="M1.66663 4.16699H3.33329M3.33329 4.16699H11.2155C11.7594 4.16699 12.269 4.43234 12.581 4.87789L15 8.33366L17.412 9.53966C17.9766 9.82199 18.3333 10.3991 18.3333 11.0304V13.3337C18.3333 13.7939 17.9602 14.167 17.5 14.167H15.8333M3.33329 4.16699L1.66663 7.91699V12.8187C1.66663 13.1342 1.84496 13.4228 2.12728 13.564L3.15733 14.079C3.27305 14.1369 3.40064 14.167 3.53002 14.167H4.16663M12.5 14.167H7.49996" stroke="black" stroke-opacity="0.2" stroke-width="1.25" stroke-linecap="round" stroke-linejoin="round"/>
<path d="M1.66663 4.16699H3.33329M3.33329 4.16699H11.2155C11.7594 4.16699 12.269 4.43234 12.581 4.87789L15 8.33366L17.412 9.53966C17.9766 9.82199 18.3333 10.3991 18.3333 11.0304V13.3337C18.3333 13.7939 17.9602 14.167 17.5 14.167H15.8333M3.33329 4.16699L1.66663 7.91699V12.8187C1.66663 13.1342 1.84496 13.4228 2.12728 13.564L3.15733 14.079C3.27305 14.1369 3.40064 14.167 3.53002 14.167H4.16663M12.5 14.167H7.49996" stroke="black" stroke-opacity="0.2" stroke-width="1.25" stroke-linecap="round" stroke-linejoin="round"/>
<path d="M7.49996 14.1667C7.49996 15.0872 6.75377 15.8333 5.83329 15.8333C4.91282 15.8333 4.16663 15.0872 4.16663 14.1667C4.16663 13.2462 4.91282 12.5 5.83329 12.5C6.75377 12.5 7.49996 13.2462 7.49996 14.1667Z" stroke="#808081" stroke-width="1.25" stroke-linecap="round" stroke-linejoin="round"/>
<path d="M7.49996 14.1667C7.49996 15.0872 6.75377 15.8333 5.83329 15.8333C4.91282 15.8333 4.16663 15.0872 4.16663 14.1667C4.16663 13.2462 4.91282 12.5 5.83329 12.5C6.75377 12.5 7.49996 13.2462 7.49996 14.1667Z" stroke="black" stroke-opacity="0.2" stroke-width="1.25" stroke-linecap="round" stroke-linejoin="round"/>
<path d="M7.49996 14.1667C7.49996 15.0872 6.75377 15.8333 5.83329 15.8333C4.91282 15.8333 4.16663 15.0872 4.16663 14.1667C4.16663 13.2462 4.91282 12.5 5.83329 12.5C6.75377 12.5 7.49996 13.2462 7.49996 14.1667Z" stroke="black" stroke-opacity="0.2" stroke-width="1.25" stroke-linecap="round" stroke-linejoin="round"/>
<path d="M15.8333 14.1667C15.8333 15.0872 15.0872 15.8333 14.1667 15.8333C13.2462 15.8333 12.5 15.0872 12.5 14.1667C12.5 13.2462 13.2462 12.5 14.1667 12.5C15.0872 12.5 15.8333 13.2462 15.8333 14.1667Z" stroke="#808081" stroke-width="1.25" stroke-linecap="round" stroke-linejoin="round"/>
<path d="M15.8333 14.1667C15.8333 15.0872 15.0872 15.8333 14.1667 15.8333C13.2462 15.8333 12.5 15.0872 12.5 14.1667C12.5 13.2462 13.2462 12.5 14.1667 12.5C15.0872 12.5 15.8333 13.2462 15.8333 14.1667Z" stroke="black" stroke-opacity="0.2" stroke-width="1.25" stroke-linecap="round" stroke-linejoin="round"/>
<path d="M15.8333 14.1667C15.8333 15.0872 15.0872 15.8333 14.1667 15.8333C13.2462 15.8333 12.5 15.0872 12.5 14.1667C12.5 13.2462 13.2462 12.5 14.1667 12.5C15.0872 12.5 15.8333 13.2462 15.8333 14.1667Z" stroke="black" stroke-opacity="0.2" stroke-width="1.25" stroke-linecap="round" stroke-linejoin="round"/>
<path d="M1.66663 8.33301H15" stroke="#808081" stroke-width="1.25" stroke-linecap="round" stroke-linejoin="round"/>
<path d="M1.66663 8.33301H15" stroke="black" stroke-opacity="0.2" stroke-width="1.25" stroke-linecap="round" stroke-linejoin="round"/>
<path d="M1.66663 8.33301H15" stroke="black" stroke-opacity="0.2" stroke-width="1.25" stroke-linecap="round" stroke-linejoin="round"/>
<path d="M7.5 8.33366V4.16699" stroke="#808081" stroke-width="1.25" stroke-linecap="round" stroke-linejoin="round"/>
<path d="M7.5 8.33366V4.16699" stroke="black" stroke-opacity="0.2" stroke-width="1.25" stroke-linecap="round" stroke-linejoin="round"/>
<path d="M7.5 8.33366V4.16699" stroke="black" stroke-opacity="0.2" stroke-width="1.25" stroke-linecap="round" stroke-linejoin="round"/>
<path d="M15 8.33301H1.66663" stroke="#808081" stroke-width="1.25" stroke-linecap="round" stroke-linejoin="round"/>
<path d="M15 8.33301H1.66663" stroke="black" stroke-opacity="0.2" stroke-width="1.25" stroke-linecap="round" stroke-linejoin="round"/>
<path d="M15 8.33301H1.66663" stroke="black" stroke-opacity="0.2" stroke-width="1.25" stroke-linecap="round" stroke-linejoin="round"/>
<path d="M7.5 4.16699V8.33366" stroke="#808081" stroke-width="1.25" stroke-linecap="round" stroke-linejoin="round"/>
<path d="M7.5 4.16699V8.33366" stroke="black" stroke-opacity="0.2" stroke-width="1.25" stroke-linecap="round" stroke-linejoin="round"/>
<path d="M7.5 4.16699V8.33366" stroke="black" stroke-opacity="0.2" stroke-width="1.25" stroke-linecap="round" stroke-linejoin="round"/>
</svg>
