<svg width="20" height="20" viewBox="0 0 20 20" fill="none" xmlns="http://www.w3.org/2000/svg">
<path d="M13.75 1.66667V4.16667M6.25 1.66667V4.16667M10 1.66667V4.16667" stroke="#141B34" stroke-width="1.5" stroke-linecap="round" stroke-linejoin="round"/>
<path d="M10.8333 2.91667H9.16667C6.41681 2.91667 5.04187 2.91667 4.18761 3.77095C3.33333 4.62521 3.33333 6.00015 3.33333 8.75001V12.5C3.33333 15.2498 3.33333 16.6248 4.18761 17.4791C5.04187 18.3333 6.41681 18.3333 9.16667 18.3333H10.8333C13.5832 18.3333 14.9581 18.3333 15.8124 17.4791C16.6667 16.6248 16.6667 15.2498 16.6667 12.5V8.75001C16.6667 6.00015 16.6667 4.62521 15.8124 3.77094C14.9581 2.91667 13.5832 2.91667 10.8333 2.91667Z" stroke="#141B34" stroke-width="1.5" stroke-linecap="round" stroke-linejoin="round"/>
<path d="M6.66667 12.5H10M6.66667 9.16667H13.3333" stroke="#141B34" stroke-width="1.5" stroke-linecap="round" stroke-linejoin="round"/>
</svg>
