<svg width="20" height="20" viewBox="0 0 20 20" fill="none" xmlns="http://www.w3.org/2000/svg">
<path d="M13.75 1.66699V4.16699M6.25 1.66699V4.16699M10 1.66699V4.16699" stroke="#808081" stroke-width="1.5" stroke-linecap="round" stroke-linejoin="round"/>
<path d="M13.75 1.66699V4.16699M6.25 1.66699V4.16699M10 1.66699V4.16699" stroke="black" stroke-opacity="0.2" stroke-width="1.5" stroke-linecap="round" stroke-linejoin="round"/>
<path d="M13.75 1.66699V4.16699M6.25 1.66699V4.16699M10 1.66699V4.16699" stroke="black" stroke-opacity="0.2" stroke-width="1.5" stroke-linecap="round" stroke-linejoin="round"/>
<path d="M10.8334 2.91699H9.16671C6.41685 2.91699 5.04192 2.91699 4.18765 3.77127C3.33337 4.62553 3.33337 6.00047 3.33337 8.75033V12.5003C3.33337 15.2502 3.33337 16.6251 4.18765 17.4794C5.04192 18.3337 6.41685 18.3337 9.16671 18.3337H10.8334C13.5832 18.3337 14.9581 18.3337 15.8125 17.4794C16.6667 16.6251 16.6667 15.2502 16.6667 12.5003V8.75033C16.6667 6.00047 16.6667 4.62553 15.8125 3.77126C14.9581 2.91699 13.5832 2.91699 10.8334 2.91699Z" stroke="#808081" stroke-width="1.5" stroke-linecap="round" stroke-linejoin="round"/>
<path d="M10.8334 2.91699H9.16671C6.41685 2.91699 5.04192 2.91699 4.18765 3.77127C3.33337 4.62553 3.33337 6.00047 3.33337 8.75033V12.5003C3.33337 15.2502 3.33337 16.6251 4.18765 17.4794C5.04192 18.3337 6.41685 18.3337 9.16671 18.3337H10.8334C13.5832 18.3337 14.9581 18.3337 15.8125 17.4794C16.6667 16.6251 16.6667 15.2502 16.6667 12.5003V8.75033C16.6667 6.00047 16.6667 4.62553 15.8125 3.77126C14.9581 2.91699 13.5832 2.91699 10.8334 2.91699Z" stroke="black" stroke-opacity="0.2" stroke-width="1.5" stroke-linecap="round" stroke-linejoin="round"/>
<path d="M10.8334 2.91699H9.16671C6.41685 2.91699 5.04192 2.91699 4.18765 3.77127C3.33337 4.62553 3.33337 6.00047 3.33337 8.75033V12.5003C3.33337 15.2502 3.33337 16.6251 4.18765 17.4794C5.04192 18.3337 6.41685 18.3337 9.16671 18.3337H10.8334C13.5832 18.3337 14.9581 18.3337 15.8125 17.4794C16.6667 16.6251 16.6667 15.2502 16.6667 12.5003V8.75033C16.6667 6.00047 16.6667 4.62553 15.8125 3.77126C14.9581 2.91699 13.5832 2.91699 10.8334 2.91699Z" stroke="black" stroke-opacity="0.2" stroke-width="1.5" stroke-linecap="round" stroke-linejoin="round"/>
<path d="M6.66663 12.5003H9.99996M6.66663 9.16699H13.3333" stroke="#808081" stroke-width="1.5" stroke-linecap="round" stroke-linejoin="round"/>
<path d="M6.66663 12.5003H9.99996M6.66663 9.16699H13.3333" stroke="black" stroke-opacity="0.2" stroke-width="1.5" stroke-linecap="round" stroke-linejoin="round"/>
<path d="M6.66663 12.5003H9.99996M6.66663 9.16699H13.3333" stroke="black" stroke-opacity="0.2" stroke-width="1.5" stroke-linecap="round" stroke-linejoin="round"/>
</svg>
