<svg width="20" height="20" viewBox="0 0 20 20" fill="none" xmlns="http://www.w3.org/2000/svg">
<path d="M5.625 1.83713V4.04167C5.625 4.45589 5.98113 4.79167 6.42046 4.79167C6.85977 4.79167 7.21591 4.45589 7.21591 4.04167V1.83713C7.21591 1.39781 6.85977 1.04167 6.42046 1.04167C5.98113 1.04167 5.625 1.39781 5.625 1.83713Z" fill="#141B34"/>
<path d="M9.20458 1.83713V4.04167C9.20458 4.45589 9.56067 4.79167 10 4.79167C10.4393 4.79167 10.7954 4.45589 10.7954 4.04167V1.83713C10.7954 1.39781 10.4393 1.04167 10 1.04167C9.56067 1.04167 9.20458 1.39781 9.20458 1.83713Z" fill="#141B34"/>
<path d="M12.7841 1.83713V4.04167C12.7841 4.45589 13.1402 4.79167 13.5796 4.79167C14.0188 4.79167 14.375 4.45589 14.375 4.04167V1.83713C14.375 1.39781 14.0188 1.04167 13.5796 1.04167C13.1402 1.04167 12.7841 1.39781 12.7841 1.83713Z" fill="#141B34"/>
<path d="M10.8813 2.5C12.216 2.49998 13.2815 2.49997 14.117 2.61231C14.9806 2.72841 15.6915 2.97499 16.2541 3.5376C16.8167 4.10021 17.0633 4.8111 17.1793 5.67464C17.2917 6.51018 17.2917 7.57566 17.2917 8.91033V12.548C17.2917 13.8827 17.2917 14.9482 17.1793 15.7837C17.0633 16.6471 16.8166 17.3582 16.2541 17.9208C15.6915 18.4833 14.9805 18.7299 14.117 18.846C13.2815 18.9583 12.216 18.9583 10.8813 18.9583H9.11867C7.78402 18.9583 6.7185 18.9583 5.88298 18.846C5.01952 18.7299 4.30852 18.4833 3.74594 17.9208C3.18339 17.3582 2.93676 16.6471 2.82064 15.7837C2.70831 14.9482 2.70832 13.8827 2.70834 12.548V8.91033C2.70832 7.57565 2.7083 6.51018 2.82064 5.67464C2.93674 4.8111 3.18332 4.10021 3.74594 3.5376C4.30854 2.97498 5.01944 2.72841 5.88298 2.61231C6.71851 2.49997 7.78399 2.49998 9.11867 2.5H10.8813ZM6.66667 11.875C6.32149 11.875 6.04167 12.1548 6.04167 12.5C6.04167 12.8452 6.32149 13.125 6.66667 13.125H10C10.3452 13.125 10.625 12.8452 10.625 12.5C10.625 12.1548 10.3452 11.875 10 11.875H6.66667ZM6.66667 8.54167C6.32149 8.54167 6.04167 8.8215 6.04167 9.16667C6.04167 9.51183 6.32149 9.79167 6.66667 9.79167H13.3333C13.6785 9.79167 13.9583 9.51183 13.9583 9.16667C13.9583 8.8215 13.6785 8.54167 13.3333 8.54167H6.66667Z" fill="#141B34"/>
</svg>
