<svg width="36" height="36" viewBox="0 0 36 36" fill="none" xmlns="http://www.w3.org/2000/svg">
<foreignObject x="-8" y="-8" width="52" height="52"><div xmlns="http://www.w3.org/1999/xhtml" style="backdrop-filter:blur(4px);clip-path:url(#bgblur_0_413_3246_clip_path);height:100%;width:100%"></div></foreignObject><g data-figma-bg-blur-radius="8">
<path d="M18 0.5C27.665 0.5 35.5 8.33502 35.5 18C35.5 27.665 27.665 35.5 18 35.5C8.33502 35.5 0.5 27.665 0.5 18C0.5 8.33502 8.33502 0.5 18 0.5Z" stroke="#808081"/>
<path fill-rule="evenodd" clip-rule="evenodd" d="M17.5385 24.8413L17.5422 24.8441L17.544 24.8455C17.81 25.05 18.19 25.05 18.4565 24.8451L18.4578 24.8441L18.4615 24.8413L18.4734 24.832C18.4806 24.8264 18.4898 24.8192 18.5009 24.8104C18.5052 24.8069 18.5099 24.8032 18.5148 24.7993C18.55 24.7713 18.5998 24.7311 18.6623 24.6791C18.7871 24.5752 18.9628 24.4243 19.1723 24.2312C19.5905 23.8459 20.1484 23.2881 20.7079 22.5969C21.8105 21.2349 23 19.2553 23 17C23 14.2386 20.7614 12 18 12C15.2386 12 13 14.2386 13 17C13 19.2553 14.1895 21.2349 15.2921 22.5969C15.8516 23.2881 16.4095 23.8459 16.8277 24.2312C17.0372 24.4243 17.2129 24.5752 17.3377 24.6791C17.4002 24.7311 17.45 24.7713 17.4852 24.7993C17.5027 24.8133 17.5166 24.8242 17.5266 24.832L17.5385 24.8413ZM18 18.5C18.8284 18.5 19.5 17.8284 19.5 17C19.5 16.1716 18.8284 15.5 18 15.5C17.1716 15.5 16.5 16.1716 16.5 17C16.5 17.8284 17.1716 18.5 18 18.5Z" fill="#808081"/>
</g>
<defs>
<clipPath id="bgblur_0_413_3246_clip_path" transform="translate(8 8)"><path d="M18 0.5C27.665 0.5 35.5 8.33502 35.5 18C35.5 27.665 27.665 35.5 18 35.5C8.33502 35.5 0.5 27.665 0.5 18C0.5 8.33502 8.33502 0.5 18 0.5Z"/>
</clipPath></defs>
</svg>
