<svg width="20" height="20" viewBox="0 0 20 20" fill="none" xmlns="http://www.w3.org/2000/svg">
<path d="M1.66675 9.16675C3.60983 7.13161 6.36944 7.03577 8.33341 9.16675M7.07932 3.75008C7.07932 4.90067 6.14526 5.83341 4.99302 5.83341C3.84079 5.83341 2.90672 4.90067 2.90672 3.75008C2.90672 2.59949 3.84079 1.66675 4.99302 1.66675C6.14526 1.66675 7.07932 2.59949 7.07932 3.75008Z" stroke="#808081" stroke-width="1.5" stroke-linejoin="round"/>
<path d="M11.6667 18.3333C13.6098 16.2981 16.3694 16.2023 18.3334 18.3333M17.0793 12.9166C17.0793 14.0672 16.1452 14.9999 14.993 14.9999C13.8408 14.9999 12.9067 14.0672 12.9067 12.9166C12.9067 11.766 13.8408 10.8333 14.993 10.8333C16.1452 10.8333 17.0793 11.766 17.0793 12.9166Z" stroke="#808081" stroke-width="1.5" stroke-linejoin="round"/>
<path d="M2.5 11.6667C2.5 14.8917 5.10833 17.5001 8.33333 17.5001V15.4167" stroke="#808081" stroke-width="1.5"/>
<path d="M12.5 2.5H17.5M12.5 5H17.5M12.5 7.5H15.4167" stroke="#808081" stroke-width="1.5" stroke-linejoin="round"/>
</svg>
