<svg preserveAspectRatio="none" width="100%" height="100%" overflow="visible" style="display: block;" viewBox="0 0 16 17" fill="none" xmlns="http://www.w3.org/2000/svg">
<path id="Subtract" d="M7.66113 0.122018C7.85712 -0.0406729 8.14288 -0.0406726 8.33887 0.122018C10.2773 1.73191 12.7302 2.74317 15.415 2.87202C15.6563 2.88364 15.8626 3.05744 15.8945 3.29682C15.9639 3.81719 16 4.34834 16 4.88764C15.9999 10.0495 12.7389 14.4469 8.16602 16.1406C8.05895 16.1801 7.94105 16.1801 7.83398 16.1406C3.26108 14.447 0.000199524 10.0495 0 4.88764C1.23524e-05 4.34841 0.0354253 3.81717 0.104492 3.29682C0.136318 3.05744 0.342773 2.88364 0.583984 2.87202C3.26914 2.74336 5.72248 1.73209 7.66113 0.122018ZM8 10.8876C7.44772 10.8876 7 11.3354 7 11.8876C7.00023 12.4397 7.44785 12.8876 8 12.8876C8.55215 12.8876 8.99977 12.4397 9 11.8876C9 11.3354 8.55228 10.8876 8 10.8876ZM8 3.88764C7.58579 3.88764 7.25 4.22343 7.25 4.63764V8.13764C7.25023 8.55167 7.58593 8.88764 8 8.88764C8.41407 8.88764 8.74977 8.55166 8.75 8.13764V4.63764C8.75 4.22343 8.41421 3.88764 8 3.88764Z" fill="var(--fill-0, #10141A)"/>
</svg>
