<svg width="20" height="20" viewBox="0 0 20 20" fill="none" xmlns="http://www.w3.org/2000/svg">
<path d="M18.3333 6.06947C18.3333 8.27078 16.4676 10.0556 14.1667 10.0556C13.8961 10.056 13.6263 10.031 13.3606 9.98104C13.1692 9.94512 13.0736 9.9272 13.0068 9.93737C12.9401 9.94754 12.8454 9.99787 12.6562 10.0985C12.1208 10.3832 11.4966 10.4838 10.8962 10.3721C11.1244 10.0915 11.2803 9.7547 11.349 9.3937C11.3907 9.17287 11.2875 8.95837 11.1328 8.80137C10.4305 8.08814 10 7.12712 10 6.06947C10 3.86815 11.8657 2.08334 14.1667 2.08334C16.4676 2.08334 18.3333 3.86815 18.3333 6.06947Z" stroke="#808081" stroke-width="1.25" stroke-linejoin="round"/>
<path d="M12.9102 6.25H12.9169M15.4102 6.25H15.4169" stroke="#808081" stroke-width="1.25" stroke-linecap="round"/>
<path d="M6.2516 17.9167H3.93183C3.66242 17.9167 3.39186 17.8788 3.14441 17.7725C2.3389 17.4265 1.93022 16.9695 1.73976 16.6835C1.63139 16.5209 1.64683 16.3137 1.7644 16.1575C2.69765 14.918 4.8654 14.1692 6.25556 14.1692C7.64572 14.1692 9.80952 14.918 10.7428 16.1575C10.8604 16.3137 10.8758 16.5209 10.7674 16.6835C10.5769 16.9695 10.1683 17.4265 9.36277 17.7725C9.11527 17.8788 8.84477 17.9167 8.57535 17.9167H6.2516Z" stroke="#808081" stroke-width="1.25" stroke-linecap="round" stroke-linejoin="round"/>
<path d="M8.57124 9.82405C8.57124 11.1001 7.53449 12.1346 6.25561 12.1346C4.97674 12.1346 3.94 11.1001 3.94 9.82405C3.94 8.54797 4.97674 7.51353 6.25561 7.51353C7.53449 7.51353 8.57124 8.54797 8.57124 9.82405Z" stroke="#808081" stroke-width="1.25" stroke-linecap="round" stroke-linejoin="round"/>
</svg>
