<svg preserveAspectRatio="none" width="100%" height="100%" overflow="visible" style="display: block;" viewBox="0 0 14 16" fill="none" xmlns="http://www.w3.org/2000/svg">
<g id="Union">
<path d="M6.61426 6C8.27111 6 9.61426 4.65685 9.61426 3C9.61426 1.34315 8.27111 0 6.61426 0C4.9574 0 3.61426 1.34315 3.61426 3C3.61426 4.65685 4.9574 6 6.61426 6Z" fill="var(--fill-0, #10141A)"/>
<path d="M0.0794286 12.4935C-0.115455 13.0016 0.0586066 13.571 0.488457 13.9046C2.18081 15.218 4.30628 16 6.61437 16C8.92482 16 11.0523 15.2164 12.7455 13.9006C13.1751 13.5667 13.3488 12.9971 13.1536 12.4892C12.1443 9.86354 9.59845 8 6.61732 8C3.63457 8 1.08755 9.86557 0.0794286 12.4935Z" fill="var(--fill-0, #10141A)"/>
</g>
</svg>
