<svg width="20" height="20" viewBox="0 0 20 20" fill="none" xmlns="http://www.w3.org/2000/svg">
<path d="M9.99992 11.6673C10.9204 11.6673 11.6666 10.9211 11.6666 10.0007C11.6666 9.08018 10.9204 8.33398 9.99992 8.33398C9.07944 8.33398 8.33325 9.08018 8.33325 10.0007C8.33325 10.9211 9.07944 11.6673 9.99992 11.6673Z" stroke="#808081" stroke-width="1.25"/>
<path d="M6.25 6.66602C5.41667 7.49935 5 8.74935 5 9.99935C5 11.2493 5.41667 12.4993 6.25 13.3327" stroke="#808081" stroke-width="1.25" stroke-linecap="round" stroke-linejoin="round"/>
<path d="M3.75008 5C2.50008 6.25 1.66675 7.91667 1.66675 10C1.66675 12.0833 2.50008 13.75 3.75008 15" stroke="#808081" stroke-width="1.25" stroke-linecap="round" stroke-linejoin="round"/>
<path d="M13.75 13.3327C14.5833 12.4993 15 11.2493 15 9.99935C15 8.74935 14.5833 7.49935 13.75 6.66602" stroke="#808081" stroke-width="1.25" stroke-linecap="round" stroke-linejoin="round"/>
<path d="M16.25 15C17.5 13.75 18.3333 12.0833 18.3333 10C18.3333 7.91667 17.5 6.25 16.25 5" stroke="#808081" stroke-width="1.25" stroke-linecap="round" stroke-linejoin="round"/>
</svg>
