<svg width="20" height="20" viewBox="0 0 20 20" fill="none" xmlns="http://www.w3.org/2000/svg">
<path d="M10.8317 5.41675H9.16817C6.77655 5.41675 5.16409 7.97432 6.10619 10.2734C6.23743 10.5937 6.53853 10.8013 6.87169 10.8013H7.4575C7.65496 10.8013 7.82708 10.9419 7.87497 11.1422L8.62917 14.2973C8.78642 14.9552 9.35159 15.4167 9.99992 15.4167C10.6483 15.4167 11.2134 14.9552 11.3707 14.2973L12.1248 11.1422C12.1728 10.9419 12.3449 10.8013 12.5423 10.8013H13.1282C13.4613 10.8013 13.7624 10.5937 13.8937 10.2734C14.8358 7.97432 13.2233 5.41675 10.8317 5.41675Z" stroke="#808081" stroke-width="1.5"/>
<path d="M12.0834 3.33333C12.0834 4.48392 11.1507 5.41667 10.0001 5.41667C8.8495 5.41667 7.91675 4.48392 7.91675 3.33333C7.91675 2.18274 8.8495 1.25 10.0001 1.25C11.1507 1.25 12.0834 2.18274 12.0834 3.33333Z" stroke="#808081" stroke-width="1.5"/>
<path d="M5.83333 13.75H5" stroke="#808081" stroke-width="1.5" stroke-linecap="round" stroke-linejoin="round"/>
<path d="M10 17.9167V18.7501" stroke="#808081" stroke-width="1.5" stroke-linecap="round" stroke-linejoin="round"/>
<path d="M15.0001 13.75H14.1667" stroke="#808081" stroke-width="1.5" stroke-linecap="round" stroke-linejoin="round"/>
</svg>
