<svg preserveAspectRatio="none" width="100%" height="100%" overflow="visible" style="display: block;" viewBox="0 0 19 19" fill="none" xmlns="http://www.w3.org/2000/svg">
<g id="Union">
<path fill-rule="evenodd" clip-rule="evenodd" d="M13.5 9C15.9853 9 18 6.98528 18 4.5C18 4.01783 17.9242 3.55338 17.7838 3.11791C17.6792 2.79367 17.2734 2.72683 17.0325 2.96772L14.3402 5.66002C14.2098 5.79041 14.0168 5.84163 13.8466 5.77074C13.1172 5.46695 12.5334 4.88351 12.2292 4.15431C12.1582 3.98403 12.2094 3.79088 12.3398 3.66042L15.0327 0.967595C15.2735 0.726716 15.2067 0.320915 14.8825 0.216358C14.4469 0.0758815 13.9823 0 13.5 0C11.0147 0 9 2.01472 9 4.5C9 4.59783 9.00312 4.69494 9.00927 4.79122C9.06503 5.66418 8.88174 6.59855 8.20974 7.15855L0.980174 13.1832C0.359099 13.7008 0 14.4674 0 15.2759C0 16.7804 1.21962 18 2.7241 18C3.53256 18 4.29925 17.6409 4.81681 17.0198L10.8414 9.79027C11.4014 9.11827 12.3358 8.93497 13.2088 8.99073C13.3051 8.99688 13.4022 9 13.5 9ZM4 15C4 15.5523 3.55228 16 3 16C2.44772 16 2 15.5523 2 15C2 14.4477 2.44772 14 3 14C3.55228 14 4 14.4477 4 15Z" fill="var(--fill-0, #10141A)"/>
<path d="M13.5 10.5C13.6731 10.5 13.8445 10.4927 14.0138 10.4783L17.7678 14.2323C18.7441 15.2086 18.7441 16.7915 17.7678 17.7678C16.7915 18.7441 15.2086 18.7441 14.2323 17.7678L9.82161 13.3571L11.9938 10.7505C12.0455 10.6885 12.1413 10.6131 12.3357 10.5552C12.5378 10.4951 12.805 10.468 13.1132 10.4877C13.2413 10.4959 13.3702 10.5 13.5 10.5Z" fill="var(--fill-0, #10141A)"/>
<path d="M5.00003 3.58582L7.33056 5.91635C7.3027 5.95627 7.27496 5.98497 7.24946 6.00622L5.79994 7.21415L3.58582 5.00003H2.30905C2.11966 5.00003 1.94653 4.89303 1.86184 4.72364L0.161199 1.32237C0.0649516 1.12987 0.102678 0.897386 0.254859 0.745205L0.745205 0.254859C0.897385 0.102679 1.12987 0.0649514 1.32237 0.161199L4.72364 1.86184C4.89303 1.94653 5.00003 2.11966 5.00003 2.30905V3.58582Z" fill="var(--fill-0, #10141A)"/>
</g>
</svg>
