<svg xmlns="http://www.w3.org/2000/svg" width="20" height="20" viewBox="0 0 20 20" fill="none">
  <path d="M12.9167 9.16667C12.9167 7.55583 11.6109 6.25 10 6.25C8.38921 6.25 7.08337 7.55583 7.08337 9.16667C7.08337 10.7775 8.38921 12.0833 10 12.0833C11.6109 12.0833 12.9167 10.7775 12.9167 9.16667Z" stroke="#808081" stroke-width="1.25" stroke-linecap="round" stroke-linejoin="round"/>
  <path d="M12.9167 9.16667C12.9167 7.55583 11.6109 6.25 10 6.25C8.38921 6.25 7.08337 7.55583 7.08337 9.16667C7.08337 10.7775 8.38921 12.0833 10 12.0833C11.6109 12.0833 12.9167 10.7775 12.9167 9.16667Z" stroke="black" stroke-opacity="0.2" stroke-width="1.25" stroke-linecap="round" stroke-linejoin="round"/>
  <path d="M12.9167 9.16667C12.9167 7.55583 11.6109 6.25 10 6.25C8.38921 6.25 7.08337 7.55583 7.08337 9.16667C7.08337 10.7775 8.38921 12.0833 10 12.0833C11.6109 12.0833 12.9167 10.7775 12.9167 9.16667Z" stroke="black" stroke-opacity="0.2" stroke-width="1.25" stroke-linecap="round" stroke-linejoin="round"/>
  <path d="M12.9023 9.45825C13.1706 9.53958 13.4552 9.58333 13.75 9.58333C15.3609 9.58333 16.6667 8.2775 16.6667 6.66667C16.6667 5.05583 15.3609 3.75 13.75 3.75C12.2376 3.75 10.994 4.90117 10.8478 6.37511" stroke="#808081" stroke-width="1.25" stroke-linecap="round" stroke-linejoin="round"/>
  <path d="M12.9023 9.45825C13.1706 9.53958 13.4552 9.58333 13.75 9.58333C15.3609 9.58333 16.6667 8.2775 16.6667 6.66667C16.6667 5.05583 15.3609 3.75 13.75 3.75C12.2376 3.75 10.994 4.90117 10.8478 6.37511" stroke="black" stroke-opacity="0.2" stroke-width="1.25" stroke-linecap="round" stroke-linejoin="round"/>
  <path d="M12.9023 9.45825C13.1706 9.53958 13.4552 9.58333 13.75 9.58333C15.3609 9.58333 16.6667 8.2775 16.6667 6.66667C16.6667 5.05583 15.3609 3.75 13.75 3.75C12.2376 3.75 10.994 4.90117 10.8478 6.37511" stroke="black" stroke-opacity="0.2" stroke-width="1.25" stroke-linecap="round" stroke-linejoin="round"/>
  <path d="M9.15229 6.37511C9.00604 4.90117 7.76247 3.75 6.25004 3.75C4.63921 3.75 3.33337 5.05583 3.33337 6.66667C3.33337 8.2775 4.63921 9.58333 6.25004 9.58333C6.54488 9.58333 6.8295 9.53958 7.09777 9.45825" stroke="#808081" stroke-width="1.25" stroke-linecap="round" stroke-linejoin="round"/>
  <path d="M9.15229 6.37511C9.00604 4.90117 7.76247 3.75 6.25004 3.75C4.63921 3.75 3.33337 5.05583 3.33337 6.66667C3.33337 8.2775 4.63921 9.58333 6.25004 9.58333C6.54488 9.58333 6.8295 9.53958 7.09777 9.45825" stroke="black" stroke-opacity="0.2" stroke-width="1.25" stroke-linecap="round" stroke-linejoin="round"/>
  <path d="M9.15229 6.37511C9.00604 4.90117 7.76247 3.75 6.25004 3.75C4.63921 3.75 3.33337 5.05583 3.33337 6.66667C3.33337 8.2775 4.63921 9.58333 6.25004 9.58333C6.54488 9.58333 6.8295 9.53958 7.09777 9.45825" stroke="black" stroke-opacity="0.2" stroke-width="1.25" stroke-linecap="round" stroke-linejoin="round"/>
  <path d="M18.3333 13.7502C18.3333 11.449 16.2813 9.5835 13.75 9.5835" stroke="#808081" stroke-width="1.25" stroke-linecap="round" stroke-linejoin="round"/>
  <path d="M18.3333 13.7502C18.3333 11.449 16.2813 9.5835 13.75 9.5835" stroke="black" stroke-opacity="0.2" stroke-width="1.25" stroke-linecap="round" stroke-linejoin="round"/>
  <path d="M18.3333 13.7502C18.3333 11.449 16.2813 9.5835 13.75 9.5835" stroke="black" stroke-opacity="0.2" stroke-width="1.25" stroke-linecap="round" stroke-linejoin="round"/>
  <path d="M14.5833 16.2502C14.5833 13.949 12.5313 12.0835 9.99996 12.0835C7.46865 12.0835 5.41663 13.949 5.41663 16.2502" stroke="#808081" stroke-width="1.25" stroke-linecap="round" stroke-linejoin="round"/>
  <path d="M14.5833 16.2502C14.5833 13.949 12.5313 12.0835 9.99996 12.0835C7.46865 12.0835 5.41663 13.949 5.41663 16.2502" stroke="black" stroke-opacity="0.2" stroke-width="1.25" stroke-linecap="round" stroke-linejoin="round"/>
  <path d="M14.5833 16.2502C14.5833 13.949 12.5313 12.0835 9.99996 12.0835C7.46865 12.0835 5.41663 13.949 5.41663 16.2502" stroke="black" stroke-opacity="0.2" stroke-width="1.25" stroke-linecap="round" stroke-linejoin="round"/>
  <path d="M6.24996 9.5835C3.71865 9.5835 1.66663 11.449 1.66663 13.7502" stroke="#808081" stroke-width="1.25" stroke-linecap="round" stroke-linejoin="round"/>
  <path d="M6.24996 9.5835C3.71865 9.5835 1.66663 11.449 1.66663 13.7502" stroke="black" stroke-opacity="0.2" stroke-width="1.25" stroke-linecap="round" stroke-linejoin="round"/>
  <path d="M6.24996 9.5835C3.71865 9.5835 1.66663 11.449 1.66663 13.7502" stroke="black" stroke-opacity="0.2" stroke-width="1.25" stroke-linecap="round" stroke-linejoin="round"/>
</svg>