<svg width="20" height="20" viewBox="0 0 20 20" fill="none" xmlns="http://www.w3.org/2000/svg">
<path d="M9.99996 18.3335L8.33329 13.3335H1.66663L3.33329 18.3335H9.99996ZM9.99996 18.3335H13.3333" stroke="white" stroke-width="1.25" stroke-linecap="round" stroke-linejoin="round"/>
<path d="M10 10.8335V10.4168C10 8.8455 10 8.0598 9.51187 7.57165C9.02371 7.0835 8.23806 7.0835 6.66671 7.0835C5.09536 7.0835 4.30968 7.0835 3.82153 7.57165C3.33337 8.0598 3.33337 8.8455 3.33337 10.4168V10.8335" stroke="white" stroke-width="1.25" stroke-linecap="round" stroke-linejoin="round"/>
<path d="M15.8333 10.8332C15.8333 11.7537 15.0872 12.4998 14.1667 12.4998C13.2462 12.4998 12.5 11.7537 12.5 10.8332C12.5 9.91267 13.2462 9.1665 14.1667 9.1665C15.0872 9.1665 15.8333 9.91267 15.8333 10.8332Z" stroke="white" stroke-width="1.25"/>
<path d="M8.33333 3.33317C8.33333 4.25365 7.58714 4.99984 6.66667 4.99984C5.74619 4.99984 5 4.25365 5 3.33317C5 2.4127 5.74619 1.6665 6.66667 1.6665C7.58714 1.6665 8.33333 2.4127 8.33333 3.33317Z" stroke="white" stroke-width="1.25"/>
<path d="M11.6666 14.5835H16.6666C17.5871 14.5835 18.3333 15.3297 18.3333 16.2502V16.6668C18.3333 17.5873 17.5871 18.3335 16.6666 18.3335H15.8333" stroke="white" stroke-width="1.25" stroke-linecap="round"/>
</svg>
