<svg xmlns="http://www.w3.org/2000/svg" width="18" height="18" viewBox="0 0 18 18" fill="none">
  <path fill-rule="evenodd" clip-rule="evenodd" d="M8.95833 0C9.36875 0 9.76742 0.137967 10.0895 0.39225L17.2518 6.04737L17.4007 6.1792C17.729 6.5053 17.9167 6.95125 17.9167 7.41942C17.9164 8.35725 17.1774 9.12025 16.25 9.16258V14.7917C16.25 16.0573 15.224 17.0833 13.9583 17.0833H3.95833C2.69268 17.0833 1.66667 16.0573 1.66667 14.7917V9.16258C0.739242 9.12025 0.000208333 8.35725 0 7.41942C0 6.88458 0.245075 6.37878 0.664875 6.04737L7.82717 0.39225L7.95167 0.302733C8.24933 0.105908 8.59925 0 8.95833 0ZM7.29167 10.2083C6.83143 10.2083 6.45833 10.5814 6.45833 11.0417V15.4167H11.4583V11.0417C11.4583 10.5814 11.0852 10.2083 10.625 10.2083H7.29167Z" fill="#808081"/>
  <path fill-rule="evenodd" clip-rule="evenodd" d="M8.95833 0C9.36875 0 9.76742 0.137967 10.0895 0.39225L17.2518 6.04737L17.4007 6.1792C17.729 6.5053 17.9167 6.95125 17.9167 7.41942C17.9164 8.35725 17.1774 9.12025 16.25 9.16258V14.7917C16.25 16.0573 15.224 17.0833 13.9583 17.0833H3.95833C2.69268 17.0833 1.66667 16.0573 1.66667 14.7917V9.16258C0.739242 9.12025 0.000208333 8.35725 0 7.41942C0 6.88458 0.245075 6.37878 0.664875 6.04737L7.82717 0.39225L7.95167 0.302733C8.24933 0.105908 8.59925 0 8.95833 0ZM7.29167 10.2083C6.83143 10.2083 6.45833 10.5814 6.45833 11.0417V15.4167H11.4583V11.0417C11.4583 10.5814 11.0852 10.2083 10.625 10.2083H7.29167Z" fill="black" fill-opacity="0.2"/>
  <path fill-rule="evenodd" clip-rule="evenodd" d="M8.95833 0C9.36875 0 9.76742 0.137967 10.0895 0.39225L17.2518 6.04737L17.4007 6.1792C17.729 6.5053 17.9167 6.95125 17.9167 7.41942C17.9164 8.35725 17.1774 9.12025 16.25 9.16258V14.7917C16.25 16.0573 15.224 17.0833 13.9583 17.0833H3.95833C2.69268 17.0833 1.66667 16.0573 1.66667 14.7917V9.16258C0.739242 9.12025 0.000208333 8.35725 0 7.41942C0 6.88458 0.245075 6.37878 0.664875 6.04737L7.82717 0.39225L7.95167 0.302733C8.24933 0.105908 8.59925 0 8.95833 0ZM7.29167 10.2083C6.83143 10.2083 6.45833 10.5814 6.45833 11.0417V15.4167H11.4583V11.0417C11.4583 10.5814 11.0852 10.2083 10.625 10.2083H7.29167Z" fill="black" fill-opacity="0.2"/>
</svg>