<svg width="21" height="20" viewBox="0 0 21 20" fill="none" xmlns="http://www.w3.org/2000/svg">
<path fill-rule="evenodd" clip-rule="evenodd" d="M9.79292 2.29289C10.1834 1.90237 10.8166 1.90237 11.2071 2.29289L18.2071 9.29289C18.4931 9.57889 18.5787 10.009 18.4239 10.3827C18.2691 10.7564 17.9045 11 17.5 11H16.5V17C16.5 17.5523 16.0523 18 15.5 18H13.5C12.9477 18 12.5 17.5523 12.5 17V14C12.5 13.4477 12.0523 13 11.5 13H9.50003C8.94774 13 8.50003 13.4477 8.50003 14V17C8.50003 17.5523 8.05231 18 7.50003 18H5.50003C4.94774 18 4.50003 17.5523 4.50003 17V11H3.50003C3.09557 11 2.73093 10.7564 2.57615 10.3827C2.42137 10.009 2.50692 9.57889 2.79292 9.29289L9.79292 2.29289Z" fill="#808081"/>
</svg>
