<svg preserveAspectRatio="none" width="100%" height="100%" overflow="visible" style="display: block;" viewBox="0 0 16 16" fill="none" xmlns="http://www.w3.org/2000/svg">
<path id="Vector (Stroke)" fill-rule="evenodd" clip-rule="evenodd" d="M0 1.5C0 0.671573 0.671573 0 1.5 0H2.64837C3.35142 0 3.96014 0.488298 4.11265 1.1746L4.82887 4.39757C5.00105 5.17238 4.53984 5.9472 3.77667 6.16525L2.84388 6.43176C2.4331 6.54913 2.20107 6.98665 2.36396 7.38159C3.53001 10.2087 5.79126 12.47 8.61841 13.636C9.01335 13.7989 9.45087 13.5669 9.56824 13.1561L9.83475 12.2233C10.0528 11.4602 10.8276 10.999 11.6024 11.1711L14.8254 11.8873C15.5117 12.0399 16 12.6486 16 13.3516V14.5C16 15.3284 15.3284 16 14.5 16H13C11.8514 16 10.7366 15.8509 9.67424 15.5705C5.16665 14.3809 1.61908 10.8334 0.429492 6.32576C0.149131 5.26341 0 4.14856 0 3V1.5Z" fill="var(--fill-0, #10141A)"/>
</svg>
